<svg width="71" height="54" viewBox="0 0 71 54" fill="none" xmlns="http://www.w3.org/2000/svg">
<path d="M27.2344 20.3851C29.2344 17.7851 30.5344 14.8851 31.2344 11.6851C30.3344 11.4851 29.5344 11.6851 28.6344 11.5851C28.6344 9.68507 28.6344 7.68507 28.6344 5.78507C28.9344 5.68507 29.1344 5.88507 29.3344 5.98507C31.1344 6.68507 33.0344 7.38507 34.8344 8.08507C35.2344 8.28507 35.6344 8.28507 36.0344 8.08507C37.8344 7.38507 39.7344 6.68507 41.5344 5.98507C41.7344 5.88507 41.9344 5.78507 42.2344 5.78507C42.2344 7.68507 42.2344 9.58507 42.2344 11.5851C41.3344 11.5851 40.5344 11.5851 39.5344 11.5851C40.3344 14.8851 41.6344 17.7851 43.6344 20.3851C42.6344 21.6851 41.7344 22.9851 40.9344 24.2851C39.1344 27.2851 37.7344 30.4851 36.5344 33.7851C36.4344 34.1851 36.3344 34.5851 36.4344 34.9851C36.4344 35.2851 36.4344 35.5851 35.9344 35.6851C35.7344 31.6851 35.9344 27.7851 35.9344 23.7851C36.8344 23.2851 37.2344 22.6851 37.0344 21.6851C36.8344 20.9851 36.2344 20.5851 35.5344 20.5851C34.8344 20.5851 34.2344 21.0851 34.0344 21.7851C33.8344 22.5851 34.1344 23.0851 35.1344 23.7851C35.1344 27.6851 35.1344 31.6851 35.1344 35.6851C34.6344 35.6851 34.5344 35.2851 34.6344 34.9851C34.7344 34.4851 34.5344 33.9851 34.4344 33.5851C32.7344 28.9851 30.6344 24.6851 27.6344 20.7851C27.4344 20.6851 27.3344 20.5851 27.2344 20.3851Z" fill="#F3821A"/>
<path d="M44.3333 4.08525C43.2333 4.48525 42.1332 4.98525 41.0332 5.38525C39.3332 5.98525 37.6332 6.68525 35.9332 7.28525C35.5332 7.38525 35.2332 7.38525 34.9332 7.28525C32.1332 6.18525 29.3332 5.08525 26.5332 4.08525C26.3332 3.98525 26.1332 3.98525 26.0332 3.78525C26.0332 3.48525 26.2332 3.48525 26.4332 3.38525C29.2332 2.28525 32.1332 1.18525 34.9332 0.0852539C35.2332 -0.0147461 35.5332 -0.0147461 35.9332 0.0852539C38.7332 1.18525 41.4332 2.18525 44.2332 3.28525C44.5332 3.38525 44.8332 3.48525 45.1332 3.58525C45.3332 4.38525 45.1332 5.18525 45.2332 5.88525C45.0332 6.08525 44.9332 5.98525 44.7332 5.98525C44.6332 5.28525 44.8332 4.58525 44.5332 3.78525C43.6332 3.78525 42.7332 3.78525 41.7332 3.78525C40.2332 3.78525 38.8333 3.78525 37.3333 3.68525C36.9333 3.68525 36.5332 3.68525 36.2332 3.88525C35.5332 4.28525 34.9332 4.28525 34.2332 3.88525C34.1332 3.78525 33.9332 3.78525 33.7332 3.68525C34.6332 4.28525 35.1332 4.38525 36.0332 4.08525C36.4332 3.88525 36.8332 3.88525 37.2332 3.88525C39.5332 3.88525 41.8332 3.88525 44.2332 3.88525C44.3332 3.88525 44.3333 3.98525 44.3333 4.08525Z" fill="#002B58"/>
<path d="M8.13281 10.1855C9.43281 10.7855 10.6328 11.4855 11.9328 12.1855C16.5328 14.6855 21.1328 17.2855 25.8328 19.8855C26.2328 20.0855 26.3328 20.3855 26.5328 20.6855C26.9328 21.2855 27.4328 21.8855 27.7328 22.4855C21.9328 20.0855 16.0328 17.7855 10.2328 15.3855C9.53279 13.7855 8.73281 11.9855 8.13281 10.1855Z" fill="#002B58"/>
<path d="M43.1328 22.485C43.3328 21.885 43.8328 21.385 44.2328 20.885C44.4328 20.685 44.6328 20.485 44.4328 20.185C50.5328 16.785 56.4328 13.485 62.6328 10.085C61.8328 11.985 61.1328 13.785 60.3328 15.585C58.3328 16.385 56.4328 17.185 54.4328 17.985C50.8328 19.485 47.1328 20.885 43.5328 22.385C43.4328 22.385 43.2328 22.385 43.1328 22.485Z" fill="#002B58"/>
<path d="M51.1344 46.9853C50.6344 46.9853 50.3344 46.9853 49.9344 46.9853C49.9344 46.1853 49.9344 45.3853 49.9344 44.6853C49.9344 43.7853 49.9344 42.7853 49.9344 41.8853C49.9344 41.4853 50.0344 41.0853 49.5344 40.9853C49.0344 40.8853 48.9344 41.3853 48.9344 41.6853C48.6344 43.0853 48.3344 44.3853 47.9344 45.7853C47.7344 46.7853 47.1344 47.1853 46.1344 47.0853C45.3344 47.0853 44.8344 46.5853 44.5344 45.6853C44.2344 44.2853 43.8344 42.7853 43.5344 41.3853C43.4344 40.7853 43.1344 40.6853 42.5344 41.0853C42.5344 42.9853 42.5344 44.8853 42.5344 46.7853C42.1344 46.8853 41.7344 46.8853 41.3344 46.7853C41.2344 46.3853 41.2344 45.9853 41.2344 45.5853C41.2344 44.1853 41.2344 42.6853 41.2344 41.2853C41.2344 40.2853 41.6344 39.6853 42.6344 39.5853C43.7344 39.3853 44.5344 39.8853 44.7344 40.7853C45.0344 42.0853 45.3344 43.3853 45.6344 44.6853C45.6344 44.8853 45.7344 44.9853 45.7344 45.1853C45.8344 45.4853 45.9344 45.6853 46.2344 45.6853C46.6344 45.6853 46.7344 45.3853 46.7344 45.1853C47.0344 44.0853 47.2344 42.9853 47.4344 41.9853C47.5344 41.6853 47.6344 41.2853 47.6344 40.9853C47.9344 39.9853 48.6344 39.4853 49.7344 39.6853C50.7344 39.7853 51.1344 40.3853 51.1344 41.4853C51.1344 43.2853 51.1344 45.0853 51.1344 46.9853Z" fill="#002B58"/>
<path d="M11.5332 17.3853C12.9332 17.7853 14.2332 18.3853 15.6332 18.8853C19.8332 20.4853 24.0332 22.0853 28.1332 23.6853C28.9332 23.9853 29.1332 24.6853 29.6332 25.3853C28.8332 25.2853 28.1332 25.0853 27.5332 24.8853C23.5332 23.7853 19.4332 22.7853 15.4332 21.6853C15.1332 21.5853 14.8332 21.3853 14.6332 21.1853C13.6332 19.8853 12.5332 18.6853 11.5332 17.3853Z" fill="#002B58"/>
<path d="M59.0328 17.3852C58.0328 18.7852 56.8328 20.0852 55.7328 21.4852C55.6328 21.6852 55.3328 21.6852 55.1328 21.6852C50.6328 22.8852 46.2328 24.0852 41.7328 25.1852C41.5328 25.1852 41.4328 25.2852 41.1328 25.2852C41.6328 24.3852 42.0328 23.6852 43.0328 23.3852C48.1328 21.4852 53.1328 19.4852 58.2328 17.5852C58.5328 17.4852 58.7328 17.2852 59.0328 17.3852Z" fill="#002B58"/>
<path d="M16.834 22.9854C19.234 23.5854 21.734 24.0854 24.134 24.6854C26.134 25.1854 28.1339 25.6854 30.0339 26.0854C30.3339 26.5854 30.634 27.0854 30.934 27.7854C30.234 27.7854 29.534 27.6854 28.834 27.6854C26.534 27.4854 24.134 27.3854 21.834 27.1854C21.634 27.1854 21.4339 27.1854 21.2339 27.0854C19.8339 25.7854 18.334 24.3854 16.834 22.9854C16.834 23.0854 16.834 23.0854 16.834 22.9854Z" fill="#002B58"/>
<path d="M53.8344 23.085C52.3344 24.385 50.8344 25.685 49.3344 27.085C49.1344 27.185 48.9344 27.285 48.7344 27.285C45.8344 27.485 42.9344 27.685 40.0344 27.885C39.9344 27.885 39.8344 27.885 39.7344 27.885C39.9344 27.285 40.2344 26.785 40.5344 26.185C42.2344 25.785 43.9344 25.385 45.6344 24.985C48.2344 24.385 50.7344 23.785 53.3344 23.185C53.6344 23.085 53.7344 23.085 53.8344 23.085Z" fill="#002B58"/>
<path d="M11.434 40.0854C11.634 39.8854 11.734 39.8854 11.934 39.8854C13.034 39.8854 14.234 39.7854 15.334 39.9854C16.434 40.1854 17.234 40.7854 17.534 41.8854C17.834 42.7854 17.834 43.6854 17.634 44.4854C17.334 45.9854 16.434 46.8854 14.934 46.9854C13.934 47.0854 13.034 46.9854 12.034 46.9854C11.834 46.9854 11.634 46.8854 11.534 46.7854C11.434 46.2854 11.334 40.7854 11.434 40.0854ZM12.734 45.6854C13.634 45.6854 14.634 45.8854 15.434 45.5854C16.434 45.1854 16.434 44.2854 16.434 43.3854C16.434 42.4854 16.334 41.5854 15.334 41.2854C14.434 40.9854 13.534 41.0854 12.634 41.1854C12.734 42.6854 12.734 44.1854 12.734 45.6854Z" fill="#002B58"/>
<path d="M69.7343 39.785C69.7343 40.185 69.7343 40.585 69.7343 41.085C68.7343 41.085 67.7343 41.085 66.7343 41.085C66.4343 41.085 66.1344 41.085 65.8344 41.085C65.3344 41.085 65.1343 41.385 65.1343 41.885C65.1343 42.385 65.4344 42.685 65.8344 42.685C66.3344 42.785 66.9343 42.685 67.4343 42.685C67.9343 42.685 68.4344 42.685 68.8344 42.785C69.7344 43.085 70.2343 43.685 70.2343 44.785C70.2343 45.885 69.7344 46.585 68.8344 46.785C68.0344 46.985 67.1344 46.885 66.3344 46.885C65.6344 46.885 64.8343 46.885 64.1343 46.885C63.9343 46.485 64.1343 46.085 64.0343 45.585C65.2343 45.585 66.4343 45.585 67.6343 45.585C67.9343 45.585 68.1343 45.585 68.4343 45.485C68.9343 45.385 69.1343 45.085 69.1343 44.585C69.1343 44.085 68.8343 43.885 68.4343 43.785C68.0343 43.785 67.7344 43.785 67.3344 43.785C66.8344 43.785 66.3344 43.785 65.8344 43.685C64.2344 43.485 63.5344 41.885 64.3344 40.485C64.6344 39.985 65.0343 39.685 65.5343 39.685C65.8343 39.685 66.0344 39.585 66.3344 39.585C67.3344 39.785 68.5343 39.785 69.7343 39.785Z" fill="#002B58"/>
<path d="M37.8328 46.9855C37.4328 46.9855 37.0328 46.9855 36.5328 46.9855C35.8328 44.9855 35.0328 43.0855 34.3328 41.0855C33.7328 40.8855 33.7328 41.2855 33.6328 41.5855C33.0328 43.1855 32.3328 44.7855 31.7328 46.4855C31.6328 46.6855 31.5328 46.8855 31.5328 46.9855C31.1328 47.0855 30.6328 47.0855 30.1328 46.9855C30.6328 45.6855 31.1328 44.4855 31.6328 43.1855C31.9328 42.2855 32.3328 41.4855 32.6328 40.5855C32.9328 39.8855 33.4328 39.6855 34.1328 39.6855C34.8328 39.6855 35.3328 39.8855 35.6328 40.5855C36.4328 42.5855 37.2328 44.6855 37.9328 46.7855C37.8328 46.7855 37.8328 46.8855 37.8328 46.9855Z" fill="#002B58"/>
<path d="M8.23399 46.9855C7.73399 46.9855 7.33403 46.9855 6.83403 46.9855C6.43403 45.9855 6.13399 44.9855 5.73399 43.9855C5.33399 42.9855 5.03402 41.9855 4.63402 41.0855C4.13402 40.8855 4.034 41.1855 3.934 41.4855C3.334 43.0855 2.73398 44.5855 2.03398 46.1855C1.93398 46.4855 1.83399 46.6855 1.73399 46.9855C1.33399 46.9855 0.834005 46.9855 0.434005 46.9855C0.334005 46.7855 0.43398 46.5855 0.53398 46.3855C1.23398 44.4855 2.03399 42.5855 2.73399 40.7855C3.03399 39.9855 3.53403 39.6855 4.33403 39.6855C5.13403 39.6855 5.53403 39.9855 5.83403 40.7855C6.53403 42.6855 7.23398 44.5855 8.03398 46.4855C8.13398 46.5855 8.13399 46.7855 8.23399 46.9855Z" fill="#002B58"/>
<path d="M54.9332 41.0853C54.9332 40.6853 54.9332 40.2853 54.9332 39.8853C55.3332 39.6853 55.7332 39.7853 56.1332 39.7853C56.9332 39.7853 57.8332 39.7853 58.6332 39.7853C60.0332 39.7853 60.9332 40.5853 60.9332 41.8853C60.9332 43.2853 60.1332 44.1853 58.6332 44.1853C57.8332 44.1853 57.1332 44.1853 56.3332 44.1853C56.1332 44.6853 56.2332 45.0853 56.2332 45.5853C56.2332 45.9853 56.3332 46.4853 56.1332 46.8853C55.7332 46.9853 55.4332 46.9853 54.9332 46.8853C54.9332 45.7853 54.8332 44.6853 55.0332 43.5853C55.1332 43.0853 55.5332 42.9853 55.9332 42.9853C56.8332 42.9853 57.6332 42.9853 58.5332 42.9853C59.2332 42.9853 59.6332 42.6853 59.6332 42.0853C59.6332 41.4853 59.2332 41.0853 58.5332 41.0853C57.3332 41.0853 56.1332 41.0853 54.9332 41.0853Z" fill="#002B58"/>
<path d="M27.0331 46.9853C25.8331 46.9853 24.7331 47.0853 23.5331 46.8853C22.2331 46.6853 21.5331 45.9853 21.2331 44.7853C21.0331 43.7853 21.0332 42.7853 21.3332 41.7853C21.6332 40.6853 22.4331 40.0853 23.5331 39.8853C24.7331 39.6853 25.9331 39.7853 27.1331 39.7853C27.2331 40.1853 27.2331 40.5853 27.1331 40.9853C26.4331 40.9853 25.6331 40.9853 24.9331 40.9853C22.8331 40.9853 22.1331 41.7853 22.4331 43.8853C22.6331 45.0853 23.1331 45.5853 24.4331 45.6853C25.3331 45.6853 26.2331 45.6853 27.1331 45.6853C27.0331 46.1853 27.0331 46.5853 27.0331 46.9853Z" fill="#002B58"/>
<path d="M58.4336 51.1855C62.3336 51.1855 66.3336 51.1855 70.2336 51.1855C70.2336 51.2855 70.2336 51.2855 70.2336 51.3855C66.3336 51.3855 62.3336 51.3855 58.4336 51.3855C58.4336 51.2855 58.4336 51.1855 58.4336 51.1855Z" fill="#F3821A"/>
<path d="M0.433594 51.1855C4.33359 51.1855 8.33358 51.1855 12.2336 51.1855C12.2336 51.2855 12.2336 51.2855 12.2336 51.3855C8.33358 51.3855 4.33359 51.3855 0.433594 51.3855C0.433594 51.2855 0.433594 51.1855 0.433594 51.1855Z" fill="#F3821A"/>
<path d="M44.5328 6.28516C44.9328 6.28516 45.1328 6.28516 45.4328 6.28516C45.5328 6.68516 45.4328 7.18516 45.5328 7.58516C45.2328 7.68516 44.9328 7.68516 44.6328 7.58516C44.4328 7.18516 44.5328 6.68516 44.5328 6.28516Z" fill="#002B58"/>
<path d="M45.6344 8.98535C45.3344 8.88535 44.9344 9.18535 44.8344 8.68535C44.7344 9.08535 44.5344 9.08535 44.2344 8.98535C44.3344 8.68535 44.3344 8.38535 44.4344 8.08535C44.7344 7.98535 45.1344 7.98535 45.4344 7.98535C45.5344 8.28535 45.6344 8.58535 45.6344 8.98535Z" fill="#002B58"/>
<path d="M16.7328 23.0854C16.7328 23.0854 16.7328 23.0854 16.6328 22.9854C16.7328 22.9854 16.8328 22.9854 16.7328 23.0854C16.8328 23.0854 16.8328 23.0854 16.7328 23.0854Z" fill="black"/>
<path d="M53.834 22.9854C53.934 22.9854 53.934 23.0854 53.834 22.9854C53.834 23.0854 53.834 23.0854 53.834 22.9854Z" fill="black"/>
<path d="M16.5344 52.2852C16.6344 52.2852 16.6344 52.2852 16.6344 52.2852L16.7344 52.3852C16.7344 52.3852 16.7344 52.3852 16.7344 52.4852C16.6344 52.5852 16.4344 52.6852 16.3344 52.7852C16.1344 52.8852 15.9344 52.8852 15.8344 52.8852C15.6344 52.8852 15.4344 52.8852 15.2344 52.7852C15.0344 52.6852 14.8344 52.5852 14.7344 52.3852C14.6344 52.2852 14.4344 52.0852 14.3344 51.8852C14.2344 51.6852 14.2344 51.4852 14.2344 51.2852C14.2344 51.0852 14.2344 50.8852 14.3344 50.6852C14.4344 50.4852 14.5344 50.2852 14.7344 50.1852C14.8344 50.0852 15.0344 49.8852 15.2344 49.8852C15.4344 49.7852 15.6344 49.7852 15.8344 49.7852C16.0344 49.7852 16.2344 49.7852 16.3344 49.8852C16.5344 49.9852 16.6344 49.9852 16.8344 50.1852C16.8344 50.1852 16.8344 50.1852 16.8344 50.2852L16.7344 50.3852C16.7344 50.3852 16.7344 50.3852 16.6344 50.3852C16.5344 50.2852 16.3344 50.1852 16.2344 50.1852C16.1344 50.0852 15.9344 50.0852 15.7344 50.0852C15.5344 50.0852 15.3344 50.0852 15.2344 50.1852C15.0344 50.2852 14.9344 50.3852 14.8344 50.4852C14.7344 50.5852 14.6344 50.7852 14.5344 50.8852C14.4344 51.0852 14.4344 51.1852 14.4344 51.3852C14.4344 51.5852 14.4344 51.7852 14.5344 51.8852C14.6344 52.0852 14.7344 52.1852 14.8344 52.2852C14.9344 52.3852 15.1344 52.4852 15.2344 52.5852C15.4344 52.6852 15.5344 52.6852 15.7344 52.6852C15.9344 52.6852 16.0344 52.6852 16.2344 52.5852C16.3344 52.4852 16.4344 52.3852 16.5344 52.2852Z" fill="#F3821A"/>
<path d="M18.1348 51.2851C18.1348 51.0851 18.1347 50.8851 18.2347 50.6851C18.3347 50.4851 18.4347 50.2851 18.5347 50.1851C18.6347 50.0851 18.8347 49.8851 19.0347 49.7851C19.2347 49.6851 19.4348 49.6851 19.6348 49.6851C19.8348 49.6851 20.0347 49.6851 20.2347 49.7851C20.4347 49.8851 20.6347 49.9851 20.7347 50.1851C20.8347 50.2851 21.0348 50.4851 21.1348 50.6851C21.2348 50.8851 21.2347 51.0851 21.2347 51.2851C21.2347 51.4851 21.2348 51.6851 21.1348 51.8851C21.0348 52.0851 20.9347 52.2851 20.7347 52.3851C20.5347 52.4851 20.4347 52.6851 20.2347 52.7851C20.0347 52.8851 19.8348 52.8851 19.6348 52.8851C19.4348 52.8851 19.2347 52.8851 19.0347 52.7851C18.8347 52.6851 18.6347 52.5851 18.5347 52.3851C18.4347 52.1851 18.2347 52.0851 18.2347 51.8851C18.1347 51.6851 18.1348 51.4851 18.1348 51.2851ZM18.3348 51.1851C18.3348 51.3851 18.3348 51.5851 18.4348 51.6851C18.5348 51.8851 18.6347 51.9851 18.7347 52.0851C18.8347 52.1851 19.0348 52.2851 19.1348 52.3851C19.3348 52.4851 19.4348 52.4851 19.6348 52.4851C19.8348 52.4851 20.0348 52.4851 20.1348 52.3851C20.3348 52.2851 20.4347 52.1851 20.5347 52.0851C20.6347 51.9851 20.7348 51.7851 20.8348 51.6851C20.9348 51.4851 20.9348 51.3851 20.9348 51.1851C20.9348 50.9851 20.9348 50.7851 20.8348 50.6851C20.7348 50.4851 20.6347 50.3851 20.5347 50.2851C20.4347 50.1851 20.2348 50.0851 20.1348 49.9851C19.9348 49.8851 19.8348 49.8851 19.6348 49.8851C19.4348 49.8851 19.2348 49.8851 19.1348 49.9851C18.9348 50.0851 18.8347 50.1851 18.7347 50.2851C18.6347 50.3851 18.5348 50.5851 18.4348 50.6851C18.4348 50.8851 18.3348 51.0851 18.3348 51.1851Z" fill="#F3821A"/>
<path d="M25.4352 52.385V49.685C25.4352 49.685 25.4352 49.585 25.5352 49.585H25.6352C25.6352 49.585 25.7352 49.585 25.7352 49.685V52.785C25.7352 52.785 25.7352 52.885 25.6352 52.885H25.5352L23.3352 50.185V52.885C23.3352 52.985 23.3352 52.985 23.2352 52.985H23.1352C23.1352 52.985 23.0352 52.985 23.0352 52.885V49.885C23.0352 49.785 23.0352 49.785 23.1352 49.785H23.2352L25.4352 52.385Z" fill="#F3821A"/>
<path d="M27.334 52.3851C27.334 52.2851 27.334 52.2851 27.334 52.2851L27.434 52.1851C27.434 52.1851 27.4339 52.1851 27.5339 52.1851C27.5339 52.1851 27.534 52.1851 27.634 52.1851C27.734 52.2851 27.8339 52.3851 28.0339 52.4851C28.1339 52.5851 28.334 52.5851 28.634 52.5851C28.734 52.5851 28.834 52.5851 28.934 52.5851C29.034 52.5851 29.1339 52.4851 29.2339 52.4851C29.3339 52.3851 29.434 52.3851 29.434 52.2851C29.534 52.1851 29.5339 52.0851 29.5339 51.9851C29.5339 51.8851 29.534 51.7851 29.434 51.6851C29.334 51.5851 29.3339 51.5851 29.2339 51.4851C29.1339 51.4851 29.034 51.3851 28.934 51.3851C28.834 51.3851 28.734 51.3851 28.634 51.2851C28.234 51.1851 28.034 51.0851 27.834 50.9851C27.634 50.8851 27.5339 50.6851 27.5339 50.4851C27.5339 50.1851 27.634 49.9851 27.834 49.8851C28.034 49.6851 28.334 49.6851 28.634 49.6851C28.834 49.6851 29.0339 49.6851 29.2339 49.7851C29.4339 49.8851 29.5339 49.9851 29.7339 50.0851C29.7339 50.0851 29.7339 50.0851 29.7339 50.1851C29.7339 50.1851 29.7339 50.1851 29.7339 50.2851L29.634 50.3851C29.634 50.3851 29.6339 50.3851 29.5339 50.3851C29.5339 50.3851 29.534 50.3851 29.434 50.3851C29.334 50.2851 29.234 50.1851 29.134 50.1851C29.034 50.0851 28.8339 50.0851 28.7339 50.0851C28.6339 50.0851 28.534 50.0851 28.434 50.0851C28.334 50.0851 28.234 50.0851 28.134 50.1851C28.034 50.1851 27.934 50.2851 27.934 50.3851C27.834 50.4851 27.834 50.5851 27.834 50.6851C27.834 50.7851 27.834 50.8851 27.934 50.8851C28.034 50.9851 28.034 50.9851 28.134 51.0851C28.234 51.0851 28.334 51.1851 28.434 51.1851C28.534 51.1851 28.6339 51.2851 28.7339 51.2851C28.8339 51.2851 29.034 51.3851 29.134 51.3851C29.234 51.3851 29.4339 51.4851 29.5339 51.5851C29.6339 51.6851 29.734 51.6851 29.834 51.7851C29.934 51.8851 29.934 51.9851 29.934 52.1851C29.934 52.3851 29.934 52.4851 29.834 52.5851C29.734 52.6851 29.7339 52.7851 29.5339 52.8851C29.4339 52.9851 29.334 52.9851 29.134 53.0851C29.034 53.0851 28.8339 53.1851 28.7339 53.1851C28.5339 53.1851 28.334 53.1851 28.134 53.0851C27.634 52.6851 27.434 52.5851 27.334 52.3851Z" fill="#F3821A"/>
<path d="M31.4348 49.685V51.485C31.4348 51.685 31.4347 51.785 31.5347 51.885C31.6347 51.985 31.6347 52.085 31.7347 52.185C31.8347 52.285 31.9347 52.385 32.0347 52.385C32.1347 52.485 32.3348 52.485 32.4348 52.485C32.6348 52.485 32.7348 52.485 32.8348 52.385C32.9348 52.285 33.0348 52.285 33.1348 52.185C33.2348 52.085 33.3348 51.985 33.3348 51.885C33.4348 51.785 33.4348 51.585 33.4348 51.485V49.685C33.4348 49.585 33.4347 49.585 33.5347 49.585H33.6348C33.6348 49.585 33.6347 49.585 33.7347 49.585C33.7347 49.585 33.7347 49.585 33.7347 49.685V51.585C33.7347 51.785 33.7348 51.985 33.6348 52.085C33.5348 52.285 33.4348 52.385 33.3348 52.485C33.2348 52.585 33.0348 52.685 32.9348 52.785C32.7348 52.885 32.6348 52.885 32.4348 52.885C32.2348 52.885 32.1348 52.885 31.9348 52.785C31.7348 52.685 31.6347 52.585 31.5347 52.485C31.4347 52.385 31.3347 52.185 31.2347 52.085C31.1347 51.885 31.1348 51.785 31.1348 51.585V49.685C31.1348 49.685 31.1348 49.685 31.1348 49.585C31.1348 49.585 31.1347 49.585 31.2347 49.585L31.4348 49.685Z" fill="#F3821A"/>
<path d="M35.6348 52.785V49.685C35.6348 49.685 35.6347 49.585 35.7347 49.585H35.8348C35.8348 49.585 35.9348 49.585 35.9348 49.685V52.585H37.6348C37.6348 52.585 37.7347 52.585 37.7347 52.685V52.785C37.7347 52.785 37.7348 52.885 37.6348 52.885L35.6348 52.785Z" fill="#F3821A"/>
<path d="M38.3344 49.6851H40.6344C40.6344 49.6851 40.6344 49.6851 40.7344 49.6851C40.7344 49.6851 40.7344 49.6851 40.7344 49.7851V49.8851C40.7344 49.9851 40.7344 49.9851 40.6344 49.9851H39.6344V52.8851C39.6344 52.9851 39.6344 52.9851 39.5344 52.9851H39.4344C39.4344 52.9851 39.3344 52.9851 39.3344 52.8851V49.8851H38.3344C38.2344 49.8851 38.2344 49.8851 38.2344 49.7851L38.3344 49.6851Z" fill="#F3821A"/>
<path d="M42.9336 49.685L44.2336 52.785V52.885C44.2336 52.885 44.2336 52.885 44.1336 52.885H44.0336C44.0336 52.885 44.0336 52.885 43.9336 52.785L43.6336 52.085H42.0336L41.7336 52.785C41.7336 52.785 41.7336 52.885 41.6336 52.885H41.5336C41.5336 52.885 41.5336 52.885 41.4336 52.885C41.4336 52.885 41.4336 52.885 41.4336 52.785L42.7336 49.685C42.7336 49.685 42.7336 49.585 42.8336 49.585L42.9336 49.685ZM42.8336 50.085L42.1336 51.885H43.5336L42.8336 50.085Z" fill="#F3821A"/>
<path d="M48.2339 52.385V49.685C48.2339 49.685 48.234 49.585 48.334 49.585H48.434C48.434 49.585 48.5339 49.585 48.5339 49.685V52.785C48.5339 52.785 48.534 52.885 48.434 52.885H48.334L46.134 50.185V52.885C46.134 52.985 46.1339 52.985 46.0339 52.985H45.934C45.934 52.985 45.834 52.985 45.834 52.885V49.885C45.834 49.785 45.834 49.785 45.934 49.785H46.0339L48.2339 52.385Z" fill="#F3821A"/>
<path d="M52.5344 52.2852C52.6344 52.2852 52.6344 52.2852 52.6344 52.2852L52.7344 52.3852C52.7344 52.3852 52.7344 52.3852 52.7344 52.4852C52.6344 52.5852 52.4344 52.6852 52.3344 52.7852C52.1344 52.8852 51.9344 52.8852 51.8344 52.8852C51.6344 52.8852 51.4344 52.8852 51.2344 52.7852C51.0344 52.6852 50.8344 52.5852 50.7344 52.3852C50.6344 52.2852 50.4344 52.0852 50.3344 51.8852C50.2344 51.6852 50.2344 51.4852 50.2344 51.2852C50.2344 51.0852 50.2344 50.8852 50.3344 50.6852C50.4344 50.4852 50.5344 50.2852 50.7344 50.1852C50.8344 50.0852 51.0344 49.8852 51.2344 49.8852C51.4344 49.7852 51.6344 49.7852 51.8344 49.7852C52.0344 49.7852 52.2344 49.7852 52.3344 49.8852C52.5344 49.9852 52.6344 49.9852 52.8344 50.1852C52.8344 50.1852 52.8344 50.1852 52.8344 50.2852L52.7344 50.3852C52.7344 50.3852 52.7344 50.3852 52.6344 50.3852C52.5344 50.2852 52.3344 50.1852 52.2344 50.1852C52.1344 50.0852 51.9344 50.0852 51.7344 50.0852C51.5344 50.0852 51.3344 50.0852 51.2344 50.1852C51.0344 50.2852 50.9344 50.3852 50.8344 50.4852C50.7344 50.5852 50.6344 50.7852 50.5344 50.8852C50.4344 51.0852 50.4344 51.1852 50.4344 51.3852C50.4344 51.5852 50.4344 51.7852 50.5344 51.8852C50.6344 52.0852 50.7344 52.1852 50.8344 52.2852C50.9344 52.3852 51.1344 52.4852 51.2344 52.5852C51.4344 52.6852 51.5344 52.6852 51.7344 52.6852C51.9344 52.6852 52.0344 52.6852 52.2344 52.5852C52.3344 52.4852 52.4344 52.3852 52.5344 52.2852Z" fill="#F3821A"/>
<path d="M55.0352 51.385L54.0352 49.685C54.0352 49.685 54.0352 49.685 54.0352 49.585C54.0352 49.585 54.0352 49.585 54.1352 49.585H54.2352L55.1352 51.085L56.0352 49.585H56.1352C56.1352 49.585 56.1352 49.585 56.1352 49.685L55.1352 51.385V52.685C55.1352 52.785 55.1352 52.785 55.0352 52.785H54.9352C54.9352 52.785 54.9352 52.785 54.9352 52.685V51.385H55.0352Z" fill="#F3821A"/>
</svg>
