<svg width="179" height="54" viewBox="0 0 179 54" fill="none" xmlns="http://www.w3.org/2000/svg">
<g clip-path="url(#clip0_752_1100)">
<path d="M35.1348 39.7716L34.2035 40.4146V43.5114L35.1348 42.861L36.4577 41.9446V38.8478L35.1348 39.7716ZM15.1572 44.4131L13.9821 43.5927V46.6895L15.1572 47.5099L16.2289 48.2564V45.1596L15.1572 44.4131ZM10.7153 41.3163L9.48103 40.4516V43.5484L10.7227 44.4131L11.7279 45.1152V42.0185L10.7153 41.3163ZM41.794 13.4527L40.9514 12.8614V35.714L39.5767 36.6749L38.7046 37.2809V40.3777L39.5767 39.7716L40.9514 38.8108L41.794 38.2195L43.1982 37.2366V14.4357L41.794 13.4527ZM6.28078 38.2195L4.98737 37.3179L4.06351 36.6749L2.74055 35.751V29.5574L1.84625 28.9292L0.493719 27.9906V37.2735L1.84625 38.2122L2.74055 38.8404L4.06351 39.7642L4.98737 40.4072L6.28078 41.3089L7.2342 41.9741V38.8773L6.28078 38.2195ZM10.7153 16.5569L9.48103 15.6921V18.7889L10.7153 19.6537L11.7279 20.3558V17.259L10.7153 16.5569ZM24.0411 1.07298L22.9694 0.333896V45.1596L24.0411 44.4131L25.2162 43.5927V1.90076L24.0411 1.07298ZM6.28078 13.4601L4.98737 12.5584V15.6552L6.28078 16.5569L7.2342 17.2221V14.1253L6.28078 13.4601ZM12.94 5.71446L11.7279 6.56441L10.7153 7.27393L9.48103 8.13867V11.2354L10.7153 10.3707L11.7279 9.66858L12.94 8.82602L13.9821 8.10171V4.99015L12.94 5.71446ZM19.5991 1.07298L18.4757 1.85642V4.9532L19.5991 4.16976L20.7226 3.38633V0.289551L19.5991 1.07298ZM19.5991 7.26654L18.4757 8.04997V40.5329L17.3819 39.7716L16.2289 38.966V12.7136L15.1572 13.4601L13.9747 14.2805V37.3992L12.9326 36.6749L11.7279 35.8323L10.7153 35.1302L9.48103 34.2654L8.49804 33.5781L7.2342 32.6986V29.6018L8.49804 30.4813L9.48103 31.1686L10.7153 32.0334L11.7279 32.7355V23.4452L10.7227 22.743L9.48103 21.8783L8.49804 21.1983L7.2342 20.3114L6.28078 19.6463L4.98737 18.7446V24.9381L4.06351 24.2877L2.73316 23.3713V12.8319L1.83886 13.4601L0.486328 14.3987V24.9012L1.83886 25.8398L2.73316 26.468L4.05612 27.3919L4.97998 28.0349V34.2285L6.27339 35.1302L7.22681 35.7953L8.49065 36.6749L9.47364 37.3622L10.7079 38.2269L11.7205 38.9291L12.9326 39.7716L13.9747 40.4959L15.1572 41.3163L16.2289 42.0628L17.3819 42.861L18.4831 43.6297L19.6065 44.4131L20.7299 45.1965V6.48311L19.5991 7.26654ZM7.2342 23.4082L8.49804 24.2951L9.48103 24.9825V28.0793L8.49804 27.3919L7.2342 26.5124V23.4082ZM37.352 10.3633L36.4504 9.7351L35.1274 8.81863L34.2035 8.16823L32.9101 7.26654L31.9567 6.60136L30.6929 5.72185L29.7099 5.0345V8.13127L30.6929 8.81863L31.9567 9.69814L32.9101 10.3633L34.2035 11.265L35.1274 11.908L35.9995 12.5141L36.4504 12.8319V32.6616L35.1274 33.5781L34.2035 34.2285V14.3618L32.9101 13.4601L31.9567 12.7949L31.5576 12.5215L30.6855 11.9154L29.7025 11.2281L28.4756 10.3633L27.463 9.6538V45.1152L26.2583 45.9578L25.2236 46.6821L24.0411 47.5025L22.9768 48.2416L21.8238 49.0398L20.7299 49.8011V52.8978L21.8238 52.1366L22.9768 51.3384L24.0411 50.5993L25.2162 49.7789L26.2509 49.0546L27.4557 48.212L28.4682 47.5025L29.7025 46.6451V14.3174L30.6855 15.0048L31.9493 15.8843V38.8921L32.9027 38.2269L34.1961 37.3252L35.12 36.6749L36.4356 35.7584L37.3299 35.1302L38.675 34.1915V11.302L37.352 10.3633Z" fill="black"/>
<path d="M115.504 34.8939H121.232C120.693 34.4431 120.271 34.0292 119.946 33.667C119.621 33.2901 119.355 32.8171 119.155 32.2406L112.075 11.4131H107.234C107.448 11.7605 107.581 12.167 107.67 12.5513C107.685 12.6104 107.692 12.6769 107.707 12.7361C107.796 13.2608 107.781 13.7264 107.67 14.096L101.506 32.3514C101.255 33.0018 100.981 33.5118 100.678 33.874C100.375 34.2509 99.9761 34.5835 99.4883 34.9013H104.655C104.64 34.8865 104.64 34.8791 104.632 34.8643C104.573 34.7609 104.521 34.6648 104.485 34.5613C104.448 34.4505 104.396 34.347 104.359 34.2509C104.322 34.1474 104.285 34.0366 104.27 33.9405C104.248 33.837 104.218 33.7409 104.196 33.6301C104.181 33.5709 104.174 33.5044 104.174 33.4527C104.159 33.4157 104.159 33.3788 104.152 33.3418C104.137 33.2827 104.13 33.2014 104.13 33.1423C104.108 32.8319 104.152 32.5067 104.27 32.1519L105.881 27.0891H114.196L115.837 32.1889C116 32.6988 116.051 33.1497 116 33.5118C115.903 33.9405 115.763 34.4505 115.504 34.8939ZM106.576 24.8867L110.028 14.1477L113.479 24.8867H106.576Z" fill="black"/>
<path d="M58.3127 32.8763C58.298 32.7507 58.2906 32.625 58.2906 32.4994V13.7857C58.2906 13.66 58.2906 13.5344 58.3127 13.4088V13.4014C58.3497 12.8988 58.4753 12.0488 58.8744 11.3984H54.5508C54.9499 12.0488 55.0755 12.8988 55.1125 13.4014C55.1347 13.6527 55.1347 13.7857 55.1347 13.7857V32.5068C55.1347 32.6324 55.1347 32.7581 55.1125 32.8837V32.8985C55.0755 33.4011 54.9499 34.251 54.5508 34.9014H58.8744C58.4753 34.251 58.3497 33.4011 58.3127 32.8985C58.3127 32.8763 58.3127 32.8763 58.3127 32.8763Z" fill="black"/>
<path d="M77.6779 26.3649C77.4562 25.6628 77.1162 25.0419 76.6432 24.4654C76.1775 23.889 75.5789 23.4012 74.8546 22.9799C74.1303 22.5512 73.2508 22.2408 72.253 22.0412C73.7533 21.6569 74.8546 20.9917 75.5567 20.0309C76.2588 19.0701 76.621 18.0206 76.621 16.8676C76.621 16.1064 76.4806 15.4042 76.2071 14.739C75.941 14.0739 75.5345 13.5048 74.9802 13.017C74.4333 12.5144 73.7312 12.1301 72.8886 11.8418C72.0386 11.5536 71.0113 11.4058 69.8362 11.4058H62.7557C63.0439 11.8714 63.1844 12.4331 63.2583 12.8913C63.2731 12.9135 63.2731 12.9505 63.2731 12.98C63.2878 13.0391 63.2878 13.1204 63.2878 13.1944V32.8984C63.2731 32.9576 63.2731 33.0241 63.2657 33.098C63.2139 33.6006 63.0661 34.3249 62.7188 34.9014H70.5679C71.8465 34.9014 72.9403 34.7388 73.879 34.4136C74.8176 34.0884 75.6011 33.6375 76.2145 33.0758C76.8279 32.4993 77.2788 31.8268 77.567 31.0359C77.8553 30.2451 78.0031 29.4099 78.0031 28.523C78.0179 27.7766 77.907 27.0523 77.6779 26.3649ZM66.4364 13.5122H69.3114C70.0727 13.5122 70.7379 13.623 71.2774 13.8374C71.8243 14.0517 72.2752 14.3399 72.6299 14.6873C72.9773 15.0495 73.2212 15.4634 73.3838 15.9216C73.5464 16.3946 73.6203 16.8824 73.6203 17.3998C73.6203 17.9393 73.5316 18.4345 73.3468 18.9001C73.1695 19.3657 72.896 19.7501 72.5338 20.09C72.1569 20.43 71.6839 20.6887 71.0852 20.8883C70.494 21.0878 69.7844 21.1913 68.9567 21.1913H66.4438V13.5122H66.4364ZM74.4776 29.9643C74.2929 30.526 73.9898 31.0138 73.5907 31.4129C73.1916 31.8268 72.6669 32.152 72.0313 32.3885C71.3956 32.625 70.6344 32.7358 69.7401 32.7358H66.4364V23.4899H69.0084C70.0209 23.4899 70.8857 23.6155 71.61 23.852C72.3491 24.1033 72.9329 24.4433 73.4134 24.8646C73.879 25.2932 74.2263 25.7884 74.4407 26.3501C74.655 26.9266 74.7511 27.5401 74.7511 28.1757C74.7659 28.8039 74.6698 29.4026 74.4776 29.9643Z" fill="black"/>
<path d="M95.6225 32.2407L91.1732 23.9481C92.5701 23.3494 93.5974 22.5069 94.2257 21.4352C94.8539 20.3635 95.1643 19.1588 95.1643 17.8432C95.1643 16.9415 95.0239 16.1064 94.7282 15.3303C94.4252 14.5543 93.9892 13.8669 93.3905 13.283C92.777 12.7066 92.0158 12.2483 91.0919 11.9083C90.1681 11.5831 89.0816 11.4058 87.8178 11.4058H81.0625C81.3507 11.8714 81.4912 12.4331 81.5651 12.8913C81.5799 12.9135 81.5799 12.9505 81.5799 12.98C81.602 13.1426 81.6168 13.2904 81.6316 13.4087C81.6316 13.4235 81.6316 13.4235 81.6316 13.4235C81.6464 13.5491 81.6538 13.66 81.6538 13.8004V32.5215C81.6538 32.6472 81.639 32.7728 81.6316 32.8984V32.9132C81.6168 32.9724 81.6168 33.0389 81.6094 33.1128C81.5577 33.6154 81.4099 34.3397 81.0625 34.9162H85.364C85.0166 34.3397 84.8762 33.6154 84.8245 33.1128C84.8097 33.098 84.8097 33.098 84.8245 33.098C84.8097 32.9871 84.8023 32.8615 84.8023 32.7358V24.798H86.3913C86.7683 24.798 87.1304 24.7833 87.463 24.7759C87.803 24.7537 88.1282 24.7167 88.4386 24.6724L92.5258 32.4476C92.7253 32.8763 92.8731 33.2828 92.9618 33.6597C93.0505 34.0366 92.9988 34.4505 92.7844 34.894H98.1872V34.8792C97.012 34.1032 96.1621 33.2162 95.6225 32.2407ZM88.7712 22.263C88.0321 22.529 87.1822 22.6473 86.1696 22.6473H84.7949V13.5196H87.6108C88.4017 13.5196 89.0594 13.6304 89.599 13.8448C90.1385 14.0591 90.5746 14.3473 90.9219 14.7095C91.2693 15.0864 91.5206 15.5225 91.6758 16.0251C91.8384 16.5276 91.9123 17.0893 91.9123 17.688C91.9123 18.3901 91.8015 19.0258 91.5871 19.6244C91.3728 20.2231 91.0402 20.7478 90.5598 21.1987C90.0942 21.6495 89.4955 21.9969 88.7712 22.263Z" fill="black"/>
<path d="M138.556 11.3984C138.955 12.0488 139.081 12.8988 139.118 13.4014C139.118 13.4161 139.118 13.4161 139.118 13.4161C139.132 13.5418 139.14 13.6527 139.14 13.7931V27.9836C138.674 27.3184 138.216 26.6458 137.75 25.9954C137.285 25.3302 136.812 24.6798 136.324 24.0295L127.122 11.3984H123.855C124.255 12.0488 124.38 12.8988 124.417 13.4014C124.417 13.4161 124.417 13.4161 124.417 13.4161C124.432 13.5418 124.439 13.6527 124.439 13.7931V32.5142C124.439 32.6398 124.425 32.7655 124.417 32.8911V32.9059C124.38 33.4085 124.255 34.2584 123.855 34.9088H127.544C127.529 34.894 127.529 34.8867 127.521 34.8571C127.462 34.7536 127.41 34.6575 127.374 34.5541C127.337 34.4432 127.285 34.3397 127.248 34.2437C127.211 34.1402 127.174 34.0293 127.159 33.9332C127.137 33.8298 127.107 33.7337 127.085 33.6228C127.063 33.5489 127.063 33.475 127.048 33.4011C127.034 33.3641 127.034 33.3124 127.026 33.2754C127.026 33.2385 127.011 33.1868 127.011 33.135C126.997 33.0463 126.989 32.9576 126.989 32.8616C126.989 32.8394 126.989 32.8024 126.974 32.7729C126.974 32.7211 126.974 32.6694 126.96 32.625V16.5351C127.536 17.3851 128.113 18.2202 128.682 19.048C129.243 19.8758 129.835 20.6962 130.448 21.5239L140.544 34.8793H141.66V13.7857C141.66 13.66 141.675 13.5344 141.682 13.4088V13.4014C141.719 12.8988 141.845 12.0488 142.244 11.3984H138.556Z" fill="black"/>
<path d="M149.834 32.8763C149.819 32.7507 149.812 32.625 149.812 32.4994V13.7857C149.812 13.66 149.812 13.5344 149.834 13.4088V13.4014C149.871 12.8988 149.997 12.0488 150.396 11.3984H146.072C146.471 12.0488 146.597 12.8988 146.634 13.4014C146.634 13.4161 146.634 13.4161 146.634 13.4161C146.649 13.5418 146.656 13.6527 146.656 13.7931V32.5142C146.656 32.6398 146.656 32.7655 146.634 32.8911V32.9059C146.597 33.4085 146.471 34.2584 146.072 34.9088H150.396C149.997 34.2584 149.871 33.4085 149.834 32.9059C149.834 32.8763 149.834 32.8763 149.834 32.8763Z" fill="black"/>
<path d="M178.792 32.9649C178.289 34.0884 177.957 34.8496 177.365 36.1652C176.575 36.2243 175.577 36.2687 175.037 36.1874H175.022C174.897 36.1652 174.756 36.1356 174.623 36.1135C173.012 35.803 172 34.8496 171.157 33.7114C171.061 33.5858 170.972 33.4527 170.891 33.3345L170.884 33.3271C170.396 32.6176 169.945 31.8563 169.435 31.1542C169.42 31.1542 169.42 31.1394 169.42 31.1394C168.592 30.0012 167.609 29.0108 166.035 28.6634C166.02 28.6634 166.02 28.6634 166.013 28.6634C164.128 28.1535 162.997 28.9886 162.953 29.0256C163.493 27.8357 163.825 27.0596 164.431 25.7145C165.222 25.6554 166.22 25.611 166.759 25.6923H166.774C166.915 25.7145 167.04 25.7441 167.173 25.7662C168.91 26.1062 169.938 27.1779 170.824 28.4269C170.943 28.5969 171.061 28.7669 171.172 28.9295C171.179 28.9369 171.179 28.9443 171.187 28.9517C171.674 29.6908 172.147 30.452 172.687 31.1394C172.776 31.2503 172.864 31.3537 172.96 31.4646C173.699 32.3145 174.609 32.9871 175.909 33.2384C175.909 33.2384 175.946 33.2532 176.035 33.2606C176.456 33.3271 177.816 33.4675 178.792 32.9649Z" fill="black"/>
<path d="M175.066 18.2127C174.541 16.7345 173.817 15.4337 172.856 14.3399C171.895 13.2386 170.72 12.3665 169.345 11.7235C167.97 11.0879 166.404 10.7627 164.667 10.7627C162.945 10.7627 161.4 11.0879 160.025 11.7235C158.665 12.3591 157.498 13.2386 156.537 14.3399C155.583 15.4411 154.837 16.7271 154.327 18.2127C153.802 19.6909 153.551 21.2651 153.551 22.9355C153.551 24.6132 153.802 26.2022 154.327 27.6878C154.837 29.1734 155.591 30.4742 156.537 31.5902C157.498 32.7062 158.665 33.5783 160.025 34.214C161.4 34.8644 162.937 35.1748 164.667 35.1748C166.404 35.1748 167.97 34.8644 169.345 34.214C169.892 33.9627 170.409 33.667 170.897 33.3418C170.897 33.3418 170.905 33.3418 170.905 33.3344C171.341 33.0314 171.747 32.7136 172.124 32.3515C172.375 32.1149 172.627 31.8489 172.848 31.5902C172.885 31.5532 172.907 31.5163 172.952 31.4793C172.959 31.4719 172.959 31.4719 172.967 31.4645C173.351 31.0211 173.684 30.5333 173.994 30.0307C174.43 29.3064 174.785 28.5304 175.08 27.6952C175.59 26.2096 175.856 24.6354 175.856 22.9429C175.842 21.2651 175.576 19.6835 175.066 18.2127ZM170.816 28.4269C169.929 27.1778 168.902 26.0988 167.165 25.7662C167.024 25.744 166.899 25.7144 166.766 25.6923H166.751C166.211 25.6184 165.214 25.6553 164.423 25.7144C163.824 27.067 163.484 27.843 162.945 29.0256C162.996 28.9886 164.12 28.1534 166.004 28.6634C166.019 28.6634 166.019 28.6634 166.027 28.6634C167.601 29.0108 168.591 30.0012 169.412 31.1394C169.412 31.1394 169.412 31.1541 169.426 31.1541C169.419 31.1615 169.419 31.1615 169.412 31.1689C169.249 31.3167 169.064 31.4719 168.887 31.5976C168.576 31.8341 168.251 32.0336 167.896 32.2258C166.936 32.7358 165.849 33.0019 164.659 33.0019C163.462 33.0019 162.383 32.7358 161.422 32.2258C160.446 31.7011 159.619 30.9989 158.924 30.0898C158.237 29.1882 157.697 28.1165 157.32 26.9044C156.943 25.6775 156.758 24.3693 156.758 22.9503C156.758 21.5608 156.943 20.26 157.32 19.0331C157.697 17.8062 158.229 16.7345 158.924 15.8181C159.626 14.909 160.446 14.1773 161.422 13.6673C162.383 13.1573 163.469 12.8913 164.659 12.8913C165.849 12.8913 166.921 13.1573 167.896 13.6673C168.872 14.1773 169.707 14.9016 170.395 15.8181C171.082 16.7271 171.621 17.8062 171.998 19.0331C172.375 20.26 172.56 21.5608 172.56 22.9503C172.56 24.3619 172.375 25.6849 171.998 26.9044C171.777 27.6361 171.488 28.316 171.148 28.9443C171.052 28.7669 170.934 28.5969 170.816 28.4269Z" fill="black"/>
<path d="M171.164 28.9295C171.157 28.9369 171.157 28.9443 171.15 28.9517C171.098 29.0773 171.024 29.203 170.95 29.3286C170.787 29.5947 170.61 29.8534 170.425 30.0899C170.13 30.4816 169.797 30.8438 169.435 31.1542C169.42 31.1542 169.42 31.1394 169.42 31.1394C168.592 30.0012 167.609 29.0108 166.035 28.6634C166.02 28.6634 166.02 28.6634 166.013 28.6634C164.128 28.1535 162.997 28.9886 162.953 29.0256C163.493 27.8357 163.825 27.0596 164.431 25.7145C165.222 25.6554 166.22 25.611 166.759 25.6923H166.774C166.915 25.7145 167.04 25.7441 167.173 25.7662C168.91 26.1062 169.938 27.1779 170.824 28.4269C170.935 28.5969 171.054 28.7669 171.164 28.9295Z" fill="black"/>
<path d="M56.9754 39.3804V41.3316C56.9754 41.5459 56.9237 41.7307 56.835 41.9081C56.7463 42.0707 56.6133 42.2111 56.4211 42.2924C56.2437 42.3811 56.022 42.4328 55.7485 42.4328C55.3642 42.4328 55.0612 42.3293 54.8616 42.1298C54.6621 41.9302 54.5586 41.6642 54.5586 41.3168V39.3804H55.0833V41.2429C55.0833 41.5089 55.1425 41.6937 55.2607 41.8046C55.3716 41.9154 55.549 41.982 55.7707 41.982C55.9185 41.982 56.0442 41.9598 56.1476 41.9081C56.2511 41.8563 56.325 41.7676 56.3694 41.6715C56.4211 41.5607 56.4433 41.4203 56.4433 41.2577V39.3804H56.9754Z" fill="black"/>
<path d="M63.0874 42.396H62.4222L60.9958 40.0235H60.9736C60.9884 40.1122 60.9884 40.2009 60.9884 40.297C60.9884 40.3857 61.0032 40.4817 61.0032 40.5704C61.0032 40.6591 61.0032 40.7552 61.0179 40.8439V42.396H60.5449V39.3805H61.2101L62.6365 41.7308H62.6513C62.6513 41.6421 62.6365 41.5534 62.6365 41.4647C62.6365 41.376 62.6218 41.2874 62.6218 41.1913C62.6218 41.1026 62.6218 41.0139 62.6218 40.9252V39.3657H63.0948C63.0874 39.3657 63.0874 42.396 63.0874 42.396Z" fill="black"/>
<path d="M67.2044 39.3804H66.6797V42.3958H67.2044V39.3804Z" fill="black"/>
<path d="M71.8743 42.3958H71.3421V39.8312H70.4922V39.3804H72.7242V39.8312H71.8743V42.3958Z" fill="black"/>
<path d="M76.8791 40.733L77.5664 39.3805H78.1429L77.1451 41.2208V42.3812H76.6204V41.2282L75.6152 39.3657H76.1917L76.8791 40.733Z" fill="black"/>
<path d="M86.4569 39.3804H85.8286L84.7422 42.3958H85.3039L85.57 41.5976H86.7082L86.9816 42.3958H87.5433L86.4569 39.3804ZM85.7326 41.1394L85.9986 40.3412C86.0134 40.3042 86.0208 40.2525 86.0504 40.1934C86.0725 40.1342 86.0873 40.0529 86.1095 39.979C86.1243 39.9051 86.1465 39.8386 86.1612 39.7943C86.176 39.8534 86.1834 39.9051 86.213 39.979C86.2351 40.0382 86.2499 40.1195 86.2721 40.1786C86.2943 40.2377 86.3091 40.3042 86.3238 40.3412L86.5899 41.1394H85.7326Z" fill="black"/>
<path d="M92.0295 39.7793C91.8891 39.7793 91.7635 39.8015 91.6526 39.8532C91.5417 39.905 91.4531 39.9789 91.3791 40.075C91.3052 40.1784 91.2535 40.2893 91.2165 40.4223C91.1796 40.5628 91.1574 40.7106 91.1574 40.8732C91.1574 41.0949 91.1796 41.3018 91.2461 41.4644C91.3052 41.627 91.3939 41.7527 91.5196 41.8414C91.6452 41.9301 91.8078 41.967 92.0074 41.967C92.133 41.967 92.2587 41.9522 92.3843 41.9301C92.5099 41.9079 92.6356 41.8709 92.7686 41.8192V42.27C92.643 42.3218 92.5173 42.3587 92.3917 42.3809C92.266 42.4031 92.1182 42.4179 91.9556 42.4179C91.6526 42.4179 91.3939 42.3587 91.1944 42.2331C90.9948 42.1074 90.847 41.9227 90.7435 41.6936C90.64 41.4644 90.5957 41.191 90.5957 40.8806C90.5957 40.6588 90.6327 40.4519 90.6992 40.2671C90.7583 40.0823 90.847 39.9198 90.9726 39.7793C91.0983 39.6389 91.2387 39.528 91.4235 39.4541C91.6009 39.3802 91.8004 39.3433 92.0369 39.3433C92.1847 39.3433 92.3252 39.358 92.473 39.395C92.6208 39.432 92.7612 39.4837 92.8869 39.5428L92.7095 39.9789C92.5986 39.9271 92.4878 39.8754 92.3695 39.8385C92.2587 39.8015 92.1478 39.7793 92.0295 39.7793Z" fill="black"/>
<path d="M97.6623 41.0656C97.7658 41.0139 97.8619 40.9622 97.9506 40.8882C98.0393 40.8143 98.1132 40.7256 98.1649 40.6222C98.2167 40.5187 98.2388 40.4004 98.2388 40.26C98.2388 40.0605 98.2019 39.8831 98.1132 39.7574C98.0245 39.6318 97.8988 39.5357 97.7289 39.4692C97.5515 39.4101 97.3445 39.3657 97.0785 39.3657H96.2285V42.3812H96.7533V41.1913H97.1893L97.9284 42.3812H98.5271L97.6623 41.0656ZM97.5441 40.6443C97.4406 40.733 97.278 40.77 97.0711 40.77H96.7607V39.8313H97.0341C97.2558 39.8313 97.4332 39.8535 97.5367 39.9348C97.6476 39.9939 97.6993 40.1196 97.6993 40.2822C97.6993 40.4448 97.6476 40.5704 97.5441 40.6443Z" fill="black"/>
<path d="M104.277 40.0676C104.174 39.8311 104.026 39.6537 103.812 39.528C103.598 39.4024 103.339 39.3433 103.021 39.3433C102.696 39.3433 102.43 39.4024 102.223 39.528C102.023 39.6537 101.861 39.8384 101.757 40.0676C101.654 40.3041 101.609 40.5701 101.609 40.8806C101.609 41.1171 101.632 41.3314 101.698 41.5162C101.757 41.701 101.846 41.8636 101.964 42.004C102.075 42.1444 102.23 42.2405 102.4 42.3144C102.578 42.3883 102.785 42.4253 103.028 42.4253C103.265 42.4253 103.479 42.3883 103.657 42.3144C103.834 42.2405 103.982 42.137 104.093 42.004C104.204 41.8636 104.292 41.701 104.359 41.5162C104.418 41.3166 104.447 41.1171 104.447 40.8806C104.44 40.5701 104.388 40.2893 104.277 40.0676ZM103.79 41.4644C103.731 41.627 103.642 41.7527 103.516 41.8414C103.391 41.9301 103.228 41.9818 103.028 41.9818C102.829 41.9818 102.666 41.9301 102.541 41.8414C102.415 41.7527 102.326 41.627 102.267 41.4644C102.208 41.3018 102.178 41.1023 102.178 40.8732C102.178 40.6514 102.201 40.4445 102.282 40.2819C102.334 40.1193 102.43 39.9937 102.555 39.905C102.681 39.8163 102.844 39.7645 103.043 39.7645C103.331 39.7645 103.546 39.8532 103.679 40.0528C103.819 40.2523 103.878 40.5258 103.878 40.8658C103.871 41.1023 103.849 41.3018 103.79 41.4644Z" fill="black"/>
<path d="M109.635 41.568C109.635 41.7454 109.598 41.908 109.51 42.0336C109.421 42.1593 109.295 42.2553 109.133 42.3366C108.97 42.3958 108.77 42.4401 108.541 42.4401C108.43 42.4401 108.327 42.4253 108.231 42.4179C108.127 42.4031 108.046 42.381 107.943 42.3662C107.854 42.344 107.765 42.3145 107.691 42.2775V41.7749C107.832 41.8341 107.965 41.8858 108.12 41.9375C108.268 41.9893 108.423 41.9967 108.586 41.9967C108.697 41.9967 108.8 41.9819 108.874 41.9449C108.948 41.908 109.014 41.871 109.051 41.8045C109.088 41.7454 109.11 41.6788 109.11 41.5902C109.11 41.5015 109.088 41.4276 109.037 41.3684C108.985 41.3093 108.911 41.2576 108.815 41.2058C108.711 41.1541 108.615 41.1024 108.475 41.058C108.386 41.0211 108.297 40.9693 108.209 40.9324C108.12 40.8806 108.046 40.8289 107.972 40.755C107.898 40.6959 107.832 40.6072 107.795 40.5185C107.758 40.415 107.736 40.3041 107.736 40.1785C107.736 40.0011 107.773 39.8533 107.861 39.7277C107.95 39.602 108.061 39.5059 108.209 39.4394C108.357 39.3803 108.534 39.3359 108.734 39.3359C108.881 39.3359 109.037 39.3507 109.17 39.3877C109.31 39.4246 109.458 39.4764 109.598 39.5355L109.421 39.9494C109.28 39.8976 109.155 39.8459 109.044 39.8237C108.933 39.8016 108.822 39.7868 108.704 39.7868C108.6 39.7868 108.527 39.8016 108.453 39.8237C108.379 39.8459 108.327 39.8976 108.29 39.9494C108.253 40.0085 108.238 40.075 108.238 40.1489C108.238 40.2376 108.261 40.3115 108.297 40.3633C108.334 40.4224 108.408 40.4741 108.497 40.5111C108.586 40.5628 108.697 40.6146 108.837 40.6589C109 40.7328 109.14 40.8067 109.251 40.8806C109.362 40.9545 109.45 41.0432 109.517 41.1541C109.598 41.2797 109.635 41.4202 109.635 41.568Z" fill="black"/>
<path d="M114.764 41.568C114.764 41.7454 114.727 41.908 114.638 42.0336C114.55 42.1593 114.424 42.2553 114.262 42.3366C114.099 42.3958 113.899 42.4401 113.67 42.4401C113.559 42.4401 113.456 42.4253 113.36 42.4179C113.256 42.4031 113.175 42.381 113.072 42.3662C112.983 42.344 112.894 42.3145 112.82 42.2775V41.7749C112.961 41.8341 113.094 41.8858 113.249 41.9375C113.397 41.9893 113.552 41.9967 113.715 41.9967C113.825 41.9967 113.929 41.9819 114.003 41.9449C114.077 41.908 114.143 41.871 114.18 41.8045C114.217 41.7454 114.239 41.6788 114.239 41.5902C114.239 41.5015 114.217 41.4276 114.165 41.3684C114.114 41.3093 114.04 41.2576 113.944 41.2058C113.84 41.1541 113.744 41.1024 113.604 41.058C113.515 41.0211 113.426 40.9693 113.338 40.9324C113.249 40.8806 113.175 40.8289 113.101 40.755C113.027 40.6959 112.961 40.6072 112.924 40.5185C112.887 40.415 112.865 40.3041 112.865 40.1785C112.865 40.0011 112.902 39.8533 112.99 39.7277C113.079 39.602 113.19 39.5059 113.338 39.4394C113.485 39.3803 113.663 39.3359 113.862 39.3359C114.01 39.3359 114.165 39.3507 114.298 39.3877C114.439 39.4246 114.587 39.4764 114.727 39.5355L114.55 39.9494C114.409 39.8976 114.284 39.8459 114.173 39.8237C114.062 39.8016 113.951 39.7868 113.833 39.7868C113.729 39.7868 113.655 39.8016 113.582 39.8237C113.508 39.8459 113.456 39.8976 113.419 39.9494C113.382 40.0085 113.367 40.075 113.367 40.1489C113.367 40.2376 113.389 40.3115 113.426 40.3633C113.463 40.4224 113.537 40.4741 113.626 40.5111C113.715 40.5628 113.825 40.6146 113.966 40.6589C114.128 40.7328 114.269 40.8067 114.38 40.8806C114.491 40.9545 114.579 41.0432 114.646 41.1541C114.742 41.2797 114.764 41.4202 114.764 41.568Z" fill="black"/>
<path d="M123.095 40.74H124.27V42.2551C124.122 42.3069 123.959 42.3586 123.782 42.3808C123.619 42.403 123.435 42.4325 123.22 42.4325C122.917 42.4325 122.659 42.3734 122.444 42.2551C122.23 42.1369 122.067 41.9669 121.971 41.7304C121.86 41.5087 121.809 41.2204 121.809 40.8952C121.809 40.5848 121.868 40.3039 121.993 40.0822C122.119 39.8457 122.296 39.6683 122.533 39.5427C122.769 39.417 123.043 39.3579 123.383 39.3579C123.545 39.3579 123.693 39.3727 123.848 39.4096C123.996 39.4466 124.137 39.4836 124.277 39.5501L124.1 39.9861C123.996 39.9344 123.885 39.8974 123.76 39.8605C123.634 39.8383 123.508 39.8088 123.383 39.8088C123.169 39.8088 122.999 39.8605 122.843 39.9492C122.695 40.0379 122.57 40.1709 122.496 40.3335C122.407 40.4961 122.37 40.6957 122.37 40.9248C122.37 41.1465 122.407 41.3387 122.474 41.5013C122.533 41.6639 122.636 41.7895 122.777 41.8782C122.917 41.9669 123.087 42.0186 123.287 42.0186C123.39 42.0186 123.472 42.0186 123.56 42.0038C123.634 41.9891 123.708 41.9817 123.775 41.9669V41.2278H123.124V40.7548H123.095V40.74Z" fill="black"/>
<path d="M129.502 42.3958H127.795V39.3804H129.502V39.8164H128.32V40.5925H129.421V41.0285H128.32V41.9302H129.502V42.3958Z" fill="black"/>
<path d="M135.511 42.396H134.846L133.42 40.0235H133.397C133.412 40.1122 133.412 40.2009 133.412 40.297C133.412 40.3857 133.427 40.4817 133.427 40.5704C133.427 40.6591 133.427 40.7552 133.442 40.8439V42.396H132.969V39.3805H133.634L135.06 41.7308H135.075C135.075 41.6421 135.06 41.5534 135.06 41.4647C135.06 41.376 135.046 41.2874 135.046 41.1913C135.046 41.1026 135.046 41.0139 135.046 40.9252V39.3657H135.519V42.396H135.511Z" fill="black"/>
<path d="M140.817 42.3958H139.109V39.3804H140.817V39.8164H139.634V40.5925H140.735V41.0285H139.634V41.9302H140.817V42.3958Z" fill="black"/>
<path d="M145.696 41.0656C145.799 41.0139 145.895 40.9622 145.984 40.8882C146.072 40.8143 146.146 40.7256 146.198 40.6222C146.25 40.5187 146.272 40.4004 146.272 40.26C146.272 40.0605 146.235 39.8831 146.146 39.7574C146.058 39.6318 145.932 39.5357 145.762 39.4692C145.585 39.4101 145.378 39.3657 145.112 39.3657H144.262V42.3812H144.786V41.1913H145.223L145.962 42.3812H146.56L145.696 41.0656ZM145.585 40.6443C145.481 40.733 145.319 40.77 145.112 40.77H144.801V39.8313H145.075C145.296 39.8313 145.474 39.8535 145.577 39.9348C145.688 39.9939 145.74 40.1196 145.74 40.2822C145.733 40.4448 145.688 40.5704 145.585 40.6443Z" fill="black"/>
<path d="M151.113 39.3804H150.485L149.398 42.3958H149.975L150.241 41.5976H151.379L151.653 42.3958H152.2L151.113 39.3804ZM150.396 41.1394L150.662 40.3412C150.677 40.3042 150.684 40.2525 150.714 40.1934C150.736 40.1342 150.751 40.0529 150.773 39.979C150.788 39.9051 150.81 39.8386 150.825 39.7943C150.84 39.8534 150.847 39.9051 150.877 39.979C150.899 40.0382 150.914 40.1195 150.936 40.1786C150.958 40.2377 150.973 40.3042 150.987 40.3412L151.254 41.1394H150.396Z" fill="black"/>
<path d="M156.485 42.3958H155.946V39.8312H155.096V39.3804H157.335V39.8312H156.485V42.3958Z" fill="black"/>
<path d="M161.134 39.3804H160.609V42.3958H161.134V39.3804Z" fill="black"/>
<path d="M167.256 40.0676C167.153 39.8311 167.005 39.6537 166.79 39.528C166.576 39.4024 166.317 39.3433 166 39.3433C165.674 39.3433 165.408 39.4024 165.201 39.528C165.002 39.6537 164.839 39.8384 164.736 40.0676C164.632 40.3041 164.588 40.5701 164.588 40.8806C164.588 41.1171 164.61 41.3314 164.677 41.5162C164.736 41.701 164.824 41.8636 164.943 42.004C165.054 42.1444 165.209 42.2405 165.379 42.3144C165.556 42.3883 165.763 42.4253 166.007 42.4253C166.243 42.4253 166.458 42.3883 166.635 42.3144C166.813 42.2405 166.96 42.137 167.071 42.004C167.182 41.8636 167.271 41.701 167.337 41.5162C167.396 41.3166 167.426 41.1171 167.426 40.8806C167.419 40.5701 167.367 40.2893 167.256 40.0676ZM166.768 41.4644C166.709 41.627 166.62 41.7527 166.495 41.8414C166.369 41.9301 166.206 41.9818 166.007 41.9818C165.807 41.9818 165.645 41.9301 165.519 41.8414C165.393 41.7527 165.305 41.627 165.246 41.4644C165.187 41.3018 165.157 41.1023 165.157 40.8732C165.157 40.6514 165.194 40.4445 165.26 40.2819C165.312 40.1193 165.408 39.9937 165.534 39.905C165.66 39.8163 165.822 39.7645 166.022 39.7645C166.31 39.7645 166.524 39.8532 166.657 40.0528C166.798 40.2523 166.857 40.5258 166.857 40.8658C166.857 41.1023 166.827 41.3018 166.768 41.4644Z" fill="black"/>
<path d="M173.417 42.396H172.752L171.326 40.0235H171.304C171.318 40.1122 171.318 40.2009 171.318 40.297C171.318 40.3857 171.333 40.4817 171.333 40.5704C171.333 40.6591 171.333 40.7552 171.348 40.8439V42.396H170.875V39.3805H171.54L172.967 41.7308H172.981C172.981 41.6421 172.967 41.5534 172.967 41.4647C172.967 41.376 172.952 41.2874 172.952 41.1913C172.952 41.1026 172.952 41.0139 172.952 40.9252V39.3657H173.425L173.417 42.396Z" fill="black"/>
<path d="M178.755 41.568C178.755 41.7454 178.718 41.908 178.63 42.0336C178.541 42.1593 178.415 42.2553 178.253 42.3366C178.09 42.3958 177.89 42.4401 177.661 42.4401C177.55 42.4401 177.447 42.4253 177.351 42.4179C177.247 42.4031 177.166 42.381 177.077 42.3662C176.989 42.344 176.9 42.3145 176.826 42.2775V41.7749C176.967 41.8341 177.1 41.8858 177.255 41.9375C177.403 41.9893 177.558 41.9967 177.72 41.9967C177.831 41.9967 177.935 41.9819 178.009 41.9449C178.083 41.908 178.149 41.871 178.186 41.8045C178.223 41.7454 178.245 41.6788 178.245 41.5902C178.245 41.5015 178.223 41.4276 178.171 41.3684C178.12 41.3093 178.046 41.2576 177.95 41.2058C177.846 41.1541 177.75 41.1024 177.61 41.058C177.521 41.0211 177.432 40.9693 177.344 40.9324C177.255 40.8806 177.181 40.8289 177.107 40.755C177.033 40.6959 176.967 40.6072 176.93 40.5185C176.893 40.415 176.871 40.3041 176.871 40.1785C176.871 40.0011 176.907 39.8533 176.996 39.7277C177.085 39.602 177.196 39.5059 177.344 39.4394C177.491 39.3803 177.669 39.3359 177.868 39.3359C178.016 39.3359 178.171 39.3507 178.304 39.3877C178.445 39.4246 178.593 39.4764 178.733 39.5355L178.556 39.9494C178.415 39.8976 178.29 39.8459 178.179 39.8237C178.068 39.8016 177.957 39.7868 177.839 39.7868C177.735 39.7868 177.661 39.8016 177.587 39.8237C177.514 39.8459 177.462 39.8976 177.425 39.9494C177.388 40.0085 177.373 40.075 177.373 40.1489C177.373 40.2376 177.395 40.3115 177.432 40.3633C177.469 40.4224 177.543 40.4741 177.632 40.5111C177.72 40.5628 177.831 40.6146 177.972 40.6589C178.134 40.7328 178.275 40.8067 178.386 40.8806C178.497 40.9545 178.585 41.0432 178.652 41.1541C178.733 41.2797 178.755 41.4202 178.755 41.568Z" fill="black"/>
</g>
<defs>
<clipPath id="clip0_752_1100">
<rect width="178.719" height="53" fill="white" transform="translate(0.189453 0.0976562)"/>
</clipPath>
</defs>
</svg>
