<svg width="180" height="52" viewBox="0 0 180 52" fill="none" xmlns="http://www.w3.org/2000/svg">
<path d="M73.5785 17.3364H70.2195L68.9538 24.589H65.8139L68.8808 7.13897H72.0207L70.755 14.3429H74.114L75.3797 7.13897H78.5196L75.4527 24.589H72.3128L73.5785 17.3364Z" fill="black"/>
<path d="M84.8312 22.0092H81.1315L80.2065 24.589H76.9692L83.9063 7.13897H87.0462L87.9712 24.589H84.8799L84.8312 22.0092ZM82.1294 19.2591H84.7582L84.6365 13.4424L84.8312 11.0817L84.2471 13.4424L82.1294 19.2591Z" fill="black"/>
<path d="M94.3282 24.8567C90.4824 24.8567 89.241 22.6907 89.8982 19.0644L91.1396 12.1282C91.3587 10.8139 91.7238 9.79176 92.2349 9.01296C93.2572 7.4797 94.7177 6.89559 96.6649 6.89559C99.9509 6.89559 101.679 8.76958 101.022 12.3229L100.681 14.2699H97.3708L97.7359 12.2012C98.028 10.4732 97.6872 9.69441 96.4458 9.69441C95.3018 9.69441 94.6933 10.3515 94.3769 12.2499L93.1355 19.2104C92.7704 21.3034 93.3789 21.9362 94.4986 21.9362C95.6183 21.9362 96.1537 21.3034 96.4702 19.3077L96.8109 17.3851H100.146L99.7805 19.4781C99.172 23.1531 97.7115 24.8567 94.3282 24.8567Z" fill="black"/>
<path d="M106.878 15.3407L105.248 17.5554L104.031 24.589H100.939L104.006 7.13897H107.073L106.002 13.2964L105.905 13.6858L110.602 7.13897H114.181L109.556 13.4424L109.629 13.8805L111.381 24.589H107.974L106.878 16.5819V15.3407Z" fill="black"/>
<path d="M117.575 24.8567C113.924 24.8567 112.561 23.0314 113.145 19.9649L113.51 18.0178H116.747L116.406 20.0622C116.187 21.4738 116.674 22.0579 117.794 22.0579C118.962 22.0579 119.376 21.3764 119.546 20.4029L119.668 19.7702C119.765 19.2104 119.717 18.748 119.522 18.3829C119.133 17.6284 118.329 17.1174 117.453 16.5576C116.966 16.2412 116.479 15.8761 116.017 15.4867C115.068 14.6593 114.508 13.5154 114.824 11.5927L114.946 10.887C115.408 8.11247 117.258 6.87126 119.863 6.87126C123.124 6.87126 124.56 8.6479 124.098 11.3494L123.806 13.0287H120.69L121.007 11.2763C121.226 10.0595 120.788 9.47537 119.717 9.47537C118.767 9.47537 118.256 10.0595 118.062 11.106L117.964 11.6658C117.867 12.1525 117.891 12.5662 118.086 12.9313C118.451 13.6128 119.23 14.0995 120.203 14.7566C120.715 15.073 121.177 15.4381 121.64 15.8518C122.589 16.6549 123.149 17.7745 122.832 19.6241L122.711 20.4516C122.199 23.4451 120.763 24.8567 117.575 24.8567Z" fill="black"/>
<path d="M126.858 24.589H123.913L126.979 7.13897H129.803L131.409 14.6836V14.7079L131.434 14.6593L135.718 7.13897H138.566L135.523 24.589H132.578L134.233 15.219L135.28 11.6414L134.282 13.8561L131.02 19.5024H130.265L128.951 13.8805L128.756 11.6171L128.464 15.3164L126.858 24.589Z" fill="black"/>
<path d="M137.552 24.589L138.063 21.6198H140.108L142.152 10.0595H140.108L140.619 7.13897H147.702L147.191 10.0595H145.195L143.15 21.6198H145.171L144.659 24.589H137.552Z" fill="black"/>
<path d="M154.964 10.0108L152.408 24.589H149.268L151.824 10.0108H148.928L149.439 7.13897H158.347L157.836 10.0108H154.964Z" fill="black"/>
<path d="M164.877 17.3364H161.518L160.253 24.589H157.113L160.18 7.13897H163.319L162.054 14.3429H165.413L166.678 7.13897H169.818L166.751 24.589H163.612L164.877 17.3364Z" fill="black"/>
<path d="M65.3757 45.0582L65.8869 42.089H67.9315L69.9761 30.5287H67.9315L68.4427 27.6082H75.5257L75.0146 30.5287H73.0187L70.9741 42.089H72.9943L72.4832 45.0582H65.3757Z" fill="black"/>
<path d="M76.881 45.0582H74.0088L77.0757 27.6082H79.8749L82.1872 37.6839L82.4306 39.4849L82.674 37.0511L84.3292 27.6082H87.177L84.1345 45.0582H81.384L79.023 34.8851L78.7796 32.9138L78.5118 35.6639L76.881 45.0582Z" fill="black"/>
<path d="M89.169 27.6082H93.5259C94.5969 27.6082 95.4975 27.8272 96.2034 28.314C97.6638 29.2631 98.3453 31.0398 97.8585 33.5952L96.7632 39.8743C96.1547 43.5006 94.0371 45.0582 90.7511 45.0582H86.1021L89.169 27.6082ZM91.8464 30.3096L89.7288 42.2837H90.9215C92.2602 42.2837 93.2338 41.4806 93.5503 39.5822L94.7186 33.0111C95.035 31.2588 94.4265 30.3096 92.9904 30.3096H91.8464Z" fill="black"/>
<path d="M102.663 45.3259C98.9149 45.3259 97.8926 43.1112 98.5498 39.3389L100.619 27.6082H103.807L101.665 39.7526C101.3 41.6996 101.811 42.2594 102.858 42.2594C103.905 42.2594 104.489 41.7726 104.805 39.85L106.972 27.6082H110.136L107.945 40.069C107.337 43.7196 105.949 45.3259 102.663 45.3259Z" fill="black"/>
<path d="M113.655 45.3259C110.003 45.3259 108.64 43.5006 109.225 40.4341L109.59 38.4871H112.827L112.486 40.5314C112.267 41.943 112.754 42.5271 113.874 42.5271C115.042 42.5271 115.456 41.8456 115.626 40.8721L115.748 40.2394C115.845 39.6796 115.797 39.2172 115.602 38.8521C115.212 38.0977 114.409 37.5866 113.533 37.0268C113.046 36.7104 112.559 36.3454 112.097 35.956C111.147 35.1285 110.588 33.9846 110.904 32.0619L111.026 31.3562C111.488 28.5817 113.338 27.3405 115.943 27.3405C119.204 27.3405 120.64 29.1171 120.178 31.8186L119.886 33.4979H116.77L117.087 31.7456C117.306 30.5287 116.868 29.9446 115.797 29.9446C114.847 29.9446 114.336 30.5287 114.141 31.5752L114.044 32.135C113.947 32.6217 113.971 33.0354 114.166 33.4005C114.531 34.082 115.31 34.5687 116.283 35.2258C116.794 35.5422 117.257 35.9073 117.719 36.321C118.669 37.1242 119.229 38.2437 118.912 40.0933L118.79 40.9208C118.279 43.9143 116.843 45.3259 113.655 45.3259Z" fill="black"/>
<path d="M127.061 30.48L124.505 45.0582H121.365L123.921 30.48H121.024L121.536 27.6082H130.444L129.933 30.48H127.061Z" fill="black"/>
<path d="M132.934 38.3897L131.765 45.0582H128.723L131.79 27.6082H136.366C139.603 27.6082 140.869 29.2388 140.309 32.3297L139.992 34.1063C139.725 35.7126 138.994 36.6131 137.437 37.0025C138.8 37.5136 139.067 38.5357 138.775 40.1663L138.118 43.7683C138.021 44.3767 138.118 44.7905 138.41 45.0582H135.1C134.881 44.8635 134.856 44.3524 134.954 43.744L135.587 40.1907C135.806 38.9495 135.514 38.3897 134.175 38.3897H132.934ZM134.37 30.2853L133.42 35.6152H134.71C136.244 35.6152 136.779 35.0555 136.998 33.7169L137.266 32.1106C137.534 30.7964 137.023 30.2853 135.757 30.2853H134.37Z" fill="black"/>
<path d="M139.284 45.0582L139.795 42.089H141.84L143.885 30.5287H141.84L142.351 27.6082H149.434L148.923 30.5287H146.927L144.883 42.089H146.903L146.392 45.0582H139.284Z" fill="black"/>
<path d="M156.242 45.0582H147.917L150.984 27.6082H159.138L158.627 30.4557H153.589L152.834 34.7878H157.264L156.753 37.6596H152.323L151.544 42.1133H156.753L156.242 45.0582Z" fill="black"/>
<path d="M162.331 45.3259C158.68 45.3259 157.317 43.5006 157.901 40.4341L158.266 38.4871H161.503L161.162 40.5314C160.943 41.943 161.43 42.5271 162.55 42.5271C163.718 42.5271 164.132 41.8456 164.302 40.8721L164.424 40.2394C164.521 39.6796 164.473 39.2172 164.278 38.8521C163.889 38.0977 163.085 37.5866 162.209 37.0268C161.722 36.7104 161.235 36.3454 160.773 35.956C159.824 35.1285 159.264 33.9846 159.58 32.0619L159.702 31.3562C160.164 28.5817 162.014 27.3405 164.619 27.3405C167.88 27.3405 169.317 29.1171 168.854 31.8186L168.562 33.4979H165.446L165.763 31.7456C165.982 30.5287 165.544 29.9446 164.473 29.9446C163.523 29.9446 163.012 30.5287 162.818 31.5752L162.72 32.135C162.623 32.6217 162.647 33.0354 162.842 33.4005C163.207 34.082 163.986 34.5687 164.96 35.2258C165.471 35.5422 165.933 35.9073 166.396 36.321C167.345 37.1242 167.905 38.2437 167.588 40.0933L167.467 40.9208C166.955 43.9143 165.519 45.3259 162.331 45.3259Z" fill="black"/>
<path d="M47.7297 44.1572C47.652 44.2082 46.6212 44.9463 46.543 44.9963C42.9344 47.3024 38.7633 48.5199 34.4611 48.5199C30.2605 48.5199 26.164 47.3524 22.6119 45.1431C22.6025 45.1372 21.2176 44.1631 21.2081 44.1572L23.84 44.208C23.8505 44.2144 24.9934 44.8108 25.0042 44.8169C27.5348 46.2376 30.5291 47.086 34.4611 47.086C38.4536 47.086 41.7573 46.2376 45.1484 44.208" fill="black"/>
<path d="M56.9411 26.2951C56.9391 26.3276 56.9271 27.3908 56.925 27.4233C56.7539 30.0733 56.1268 32.6427 55.0604 35.062C54.0342 37.3901 52.6315 39.5141 50.8898 41.3775C50.8543 41.4155 50.397 41.8352 50.3612 41.8729L50.007 41.1625L49.602 40.6551C49.6267 40.6291 49.7951 40.4514 49.8195 40.4254C53.1585 36.865 55.1989 32.1744 55.5238 27.31" fill="black"/>
<path d="M48.6905 8.48511C49.1196 8.77191 48.5807 8.40109 48.9622 8.68788C49.2708 8.91992 49.5421 9.18241 49.5465 9.18637C52.712 12.0542 54.9889 15.7309 56.1356 19.8256C56.1388 19.837 56.373 20.8474 56.4954 21.4979C56.6425 22.2803 56.5825 22.1208 56.5863 22.1346L55.7258 21.4242L54.9666 20.9676C54.962 20.951 54.7691 20.2509 54.7645 20.2344C53.6914 16.3872 51.6669 13.0044 48.6905 10.3118" fill="black"/>
<path d="M45.248 7.72404C45.2439 7.72186 44.3283 7.25589 44.3242 7.25371C41.3081 5.6492 37.8973 4.8012 34.4595 4.8012C31.7045 4.8012 29.026 5.32582 26.4981 6.36055C26.4951 6.36182 26.0685 6.55576 26.0655 6.55702L25.3062 5.33922C25.31 5.33765 25.9552 5.03396 25.959 5.03238C28.6588 3.92743 31.5187 3.36719 34.4595 3.36719C38.1302 3.36719 41.7728 4.27303 44.9947 5.98704C44.9991 5.98938 45.2942 6.1487 45.2986 6.15104L45.248 7.72404Z" fill="black"/>
<path d="M20.0954 10.4131C16.8309 13.4176 14.7423 17.2378 13.8339 21.5593C13.8321 21.5676 13.7704 21.7709 13.7687 21.7793L13.1107 21.9822L12.3009 22.3374C12.3019 22.3329 12.3062 22.1711 12.3515 21.7793C12.3968 21.3874 12.4335 21.2676 12.4344 21.2631C12.9196 18.9554 13.7613 16.7471 14.9365 14.699C16.0887 12.6909 17.5379 10.8767 19.2439 9.30639C19.2494 9.30137 19.6344 8.99732 19.6399 8.9923L19.8424 9.80417" fill="black"/>
<path d="M12.2409 29.2349L12.353 29.9659C13.1375 34.339 15.1339 38.3522 18.2179 41.5743C18.2207 41.5772 18.2694 41.6161 18.2722 41.619L18.424 41.3653L18.8289 40.8579L19.1832 40.5027C19.1854 40.5049 19.1811 40.5005 19.1832 40.5027C16.2944 37.4851 14.4762 33.7033 13.8182 30.3036C13.8162 30.2934 13.7188 29.857 13.717 29.8469L12.7553 29.5424" fill="black"/>
<path d="M21.1667 40.3787L20.3014 40.6443L19.8664 40.9001L19.5067 41.1838L19.2145 41.4867L18.9831 41.7995L18.8086 42.113L18.6764 42.4159L18.5845 42.6996L18.525 42.9535L18.4906 43.1682L18.4748 43.3339L18.4708 43.4406V43.4784H49.9085L49.65 42.4518L49.2534 41.6604L48.7522 41.0738L48.1823 40.6616L47.5787 40.3964L46.9764 40.2427L46.4105 40.1724L45.9167 40.1512L45.6066 40.1558L45.3765 40.1604L45.1345 40.179L44.7379 40.2208L44.209 40.2619L43.5822 40.2811L42.9211 40.2572L42.2203 40.1718L41.5083 40.0054L40.8101 39.7402L40.149 39.3532L39.554 38.8229L39.0535 38.1376L38.6687 37.27L38.4843 36.5721L38.4096 35.9405L38.4301 35.3738L38.5326 34.8688L38.7032 34.422L38.9286 34.031L39.193 33.6916L39.4892 33.4013L39.8 33.1574L40.1126 32.9585L40.4141 32.7962L40.6905 32.6709L40.9284 32.5787L41.1149 32.5164L41.2365 32.482L41.2802 32.4714L41.538 31.6952L41.6319 31.6674L41.9056 31.6011L42.3683 31.4844L43.0182 31.3187L43.8618 31.1027L44.9024 30.8375L46.1434 30.5174L47.5866 30.1429L48.3701 29.9143L49.1687 29.6339L49.9706 29.3158L50.7686 28.9658L51.5534 28.5933L52.3156 28.2076L53.0482 27.8165L53.741 27.4254L54.3856 27.0503L54.9734 26.697L55.4943 26.3736L55.9413 26.0893L56.9253 25.5213H39.0734V24.8637L11.7837 24.881L11.863 25.341L12.2597 27.6243L12.3959 28.2041L12.5334 28.5679L12.7231 28.7443L13.0147 28.859L13.4733 29.0089L13.8442 29.1063L14.8544 29.4019L16.1997 29.7922L16.9422 30.0103L17.6992 30.229L21.3552 31.2796L21.6058 31.3512L21.6943 31.3764L21.7049 31.4115L21.7353 31.5049L21.7816 31.6375L21.8418 31.7912L21.9125 31.9477L21.9905 32.0875L22.0732 32.1929L22.1572 32.2446L23.8053 32.7191L25.0059 33.2759L25.8257 33.8856L26.3322 34.5213L26.5966 35.1536L26.6799 35.7547L26.6522 36.2969L26.5821 36.7516L26.5516 36.9358L26.4531 37.3468L26.2502 37.9055L25.9084 38.5365L25.3914 39.1615L24.6642 39.703L23.6877 40.0848L22.4315 40.2293" fill="black"/>
<path d="M56.9102 23.778L56.8528 23.6488L56.7397 23.4997L56.5731 23.3008L56.3569 23.0437L56.0838 22.7494L55.7466 22.4398L55.3354 22.1363L54.8468 21.8665L54.2723 21.6505L53.6033 21.5113L53.6092 21.5743L53.6224 21.74L53.6337 21.9753V22.2457L53.6165 22.5208L53.5715 22.7614L53.4908 22.9357L53.3665 23.0112L52.8866 23.0477L52.0833 23.0728L51.4083 23.049L50.7862 22.9602L50.3181 22.7812L50.1059 22.4876L50.139 22.1947L50.3082 21.9992L50.5727 21.8898L50.8887 21.856L51.13 21.8726L51.3608 21.9197L51.5644 21.9926L51.725 22.088L51.7911 22.1086L51.8771 22.0847L51.9597 22.0185L52.0172 21.9144L52.0291 21.7819L51.9743 21.6221L51.8328 21.4438L51.5829 21.2536L51.2047 21.0547L50.535 20.8519L49.8613 20.7936L49.2061 20.8406L48.6356 20.954L48.1959 21.0865L47.9315 21.2006L47.8905 21.2125L47.8528 21.1992L47.8197 21.1522L47.7979 21.0568V20.9003L47.8555 6.48115L47.0449 5.65599H46.6271L46.5901 6.12393L46.0863 6.78672H46.1326L46.2364 6.79134L46.3627 6.81255L46.4757 6.86096L46.5418 6.94778L46.5326 7.03723L46.4777 7.15851L46.3924 7.29769L46.2899 7.4422L46.1855 7.57474L46.0929 7.6881L46.0268 7.76563L46.0017 7.79481H46.0876L46.2152 7.80009L46.3567 7.82394L46.4744 7.87696L46.5312 7.96977L46.518 8.05923L46.4684 8.16528L46.3904 8.28127L46.3032 8.39463L46.2146 8.49804L46.1366 8.58288L46.0811 8.64052L46.0599 8.66173L46.1379 8.69883L46.3071 8.79361L46.4691 8.92087L46.5266 9.05341L46.4916 9.13429L46.4255 9.241L46.3342 9.36228L46.2324 9.4869L46.1326 9.60289L46.0466 9.70032L45.9865 9.76659L45.964 9.7911L46.0301 9.79906L46.1802 9.82692L46.3349 9.87995L46.4162 9.96413L46.4024 10.037L46.3514 10.1444L46.2754 10.273L46.1862 10.4089L46.0949 10.5414L46.0149 10.6508L45.9587 10.727L45.9369 10.7555L46.011 10.7621L46.169 10.7999L46.3158 10.8954L46.3554 11.0757L46.2741 11.2997L46.1544 11.4926L46.046 11.6251L45.9991 11.6762L46.0566 11.6927L46.1822 11.7518L46.3052 11.8684L46.3561 12.0586L46.331 12.1779L46.2722 12.3019L46.1922 12.4252L46.1003 12.5392L46.009 12.638L45.9297 12.7162L45.8735 12.7679L45.8524 12.7864L45.9231 12.7931L46.0792 12.8322L46.2352 12.9316L46.3066 13.1192L46.2861 13.2418L46.2333 13.3671L46.1585 13.4891L46.0726 13.6018L45.9873 13.6998L45.9126 13.7767L45.8597 13.8271L45.8399 13.845H45.9146L46.0792 13.8669L46.2438 13.9252L46.3185 14.0392L46.298 14.1254L46.2451 14.236L46.1685 14.3501L46.0806 14.4641L45.994 14.5675L45.9173 14.6536L45.8631 14.7119L45.8426 14.7338L45.9001 14.753L46.0323 14.8154L46.1645 14.926L46.2365 15.091L46.2247 15.1958L46.1784 15.3118L46.1043 15.4291L46.0217 15.5438L45.9377 15.6465L45.8617 15.7287L45.8088 15.7837L45.789 15.8043L45.8597 15.8222L46.0144 15.8778L46.1665 15.9706L46.2326 16.1032L46.2088 16.1926L46.1546 16.3073L46.0792 16.4346L45.994 16.5671L45.91 16.6877L45.8366 16.7878L45.785 16.8541L45.7658 16.8792H45.8319L45.9324 16.8865L46.0428 16.921L46.1301 16.9959L46.1618 17.1284L46.1387 17.2484L46.0871 17.3809L46.0163 17.5135L45.9363 17.646L45.8563 17.762L45.7902 17.8561L45.7412 17.9191L45.7227 17.9423H45.7379L45.8371 17.9509L45.9785 17.996L46.1035 18.1066L46.1531 18.3127L46.0731 18.5779L45.9084 18.784L45.7471 18.9165L45.6737 18.9629H45.7517L45.8331 18.9735L45.9236 18.9973L46.0102 19.0404L46.0763 19.1067L46.114 19.2048L46.1061 19.3373L46.04 19.5123L45.9275 19.6601L45.8198 19.7058L45.6651 19.6309L45.5031 19.4367L45.3325 19.169L45.039 18.6891L44.8407 18.3623L44.5676 17.9096L44.2331 17.3509L43.8364 16.706L43.3968 15.9962L42.9221 15.2406L42.4236 14.4598L41.9086 13.6737L41.389 12.9022L40.8746 12.1659L40.3761 11.4845L39.9028 10.8774L39.4651 10.3657L39.0738 9.96803L38.7386 9.70692L38.1363 9.36162L37.5585 9.07264L37.0223 8.83603L36.545 8.64981L36.143 8.51062L35.8349 8.41452L35.6366 8.35886L35.5705 8.3416L35.585 8.45826L35.626 8.76976L35.6888 9.21847L35.7681 9.74873L35.86 10.2968L35.9592 10.8079L36.061 11.2234L36.1602 11.4886L36.2679 11.6635L36.4841 12.0062L36.7935 12.492L37.1789 13.0959L38.1157 14.5593L38.6354 15.3626L40.6836 18.5526L41.1087 19.2154L41.9827 20.5735L28.1263 20.4595L29.3163 18.5725L29.356 18.6149L29.4644 18.7262L29.6264 18.884L29.8247 19.0649L30.0495 19.2459L30.2842 19.4056L30.5116 19.5169L30.7178 19.5594L30.85 19.5322L30.9545 19.4453L31.0821 19.0039L30.938 18.483L30.5863 17.9349L30.0924 17.4119L30.1585 17.2568L30.3258 16.8458L30.5506 16.2586L30.7879 15.5753L30.9995 14.878L31.139 14.247L31.1627 13.7626L31.0305 13.5047L30.8666 13.4703L30.5209 13.5419L30.0958 13.7321L29.629 14.0039L29.1576 14.318L28.7193 14.6375L28.3511 14.9238L28.0899 15.1392L27.9735 15.2459L27.9253 15.2691L27.8162 15.2214L27.6873 15.1002L27.5617 14.9391L27.4619 14.7727L27.3475 14.5825L27.1201 14.2358L26.8213 13.7858L26.4907 13.2907L26.1641 12.8075L25.8824 12.392L25.6841 12.101L25.61 11.9917L25.7548 8.06328L25.6967 7.95591L25.3251 7.27592L24.8267 6.36125L24.6092 5.96359L24.397 5.57455L24.3706 5.54273L24.3045 5.47646L24.2199 5.4102L24.1359 5.37904H24.124L24.0777 5.42608L24.0513 5.51888L24.0394 5.60966V5.65076L23.8583 7.75645L23.888 7.82272L23.9859 7.88899L24.0256 7.88102V7.89492L24.0315 7.92608L24.0738 7.95987L24.1829 7.98042V8.04603L24.2093 8.09576L24.2933 8.12823V8.14747L24.2781 8.19252L24.2814 8.24951L24.3376 8.30583L24.3303 8.32836L24.2992 8.37144L24.294 8.43771L24.3641 8.51925L24.3178 8.55436L24.2616 8.62794L24.2735 8.69954L24.3264 8.73531L24.3 8.74059L24.2471 8.76312L24.2061 8.81284L24.2147 8.899H24.183L24.1255 8.91357L24.0726 8.95203L24.0554 9.02626L23.9985 9.0183L23.9324 9.03819L23.906 9.12369L23.871 9.10446L23.7963 9.08523L23.7381 9.10842L23.7044 9.19589L23.7216 10.4976L23.6357 10.5102L22.9871 9.36289L22.9501 9.33706L22.8715 9.31123L22.8166 9.3364L22.7842 9.43118L22.7598 9.40003L22.6937 9.36887H22.6811L22.615 9.39871L22.6057 9.46036V9.4736L22.5727 9.43382L22.5019 9.39272H22.498L22.4167 9.42586L22.3843 9.49212V9.4769L22.375 9.42854L22.3506 9.38014L22.3016 9.35827L22.2527 9.37283L22.2322 9.40465L22.2203 9.43646L22.1978 9.45102H22.1939L22.1793 9.44575L22.1707 9.41789L22.1575 9.32706L22.1 9.30717L22.0339 9.31316L22.0419 9.26013L22.0313 9.20315L21.9903 9.15743L21.9089 9.13886H21.8759L21.8938 9.10639L21.9229 9.03545V8.96451L21.8568 8.9327H21.8442L21.8654 8.91346L21.911 8.86577L21.9216 8.7995L21.8369 8.73323L21.8673 8.71202L21.9189 8.65899L21.9321 8.58872L21.8482 8.51646L21.8944 8.47866L21.9955 8.39052L22.094 8.28645L22.1337 8.20425L22.0616 8.10017L21.8805 7.87681L21.6266 7.57393L21.3364 7.23391L21.0468 6.89719L20.6164 6.40012L20.5503 6.32258H20.5279L20.4829 6.32989L20.432 6.36237L20.3897 6.43594L20.3725 6.56848L20.3771 6.77591L20.3956 7.15237L20.434 7.6468L20.5001 8.20952L20.5966 8.78945L20.7288 9.33625L20.908 9.80018L21.1387 10.1316L21.4151 10.4292L21.7152 10.8076L22.02 11.2291L22.3122 11.6573L22.5713 12.0549L22.7796 12.3863L22.9184 12.6117L22.9694 12.6952L22.8074 21.1949V21.2208L22.8021 21.2784L22.7777 21.336L22.7215 21.3626L22.6243 21.3281C22.161 21.1098 21.9269 20.8714 20.6542 20.7236L20.4697 20.7375L20.2655 20.7773L20.0559 20.8383L19.8575 20.9158L19.6816 21.0106L19.5461 21.11L19.4648 21.2134L19.4522 21.3175L19.5712 21.5077L19.7596 21.6058L19.958 21.6443L20.1081 21.6542L20.1352 21.688L20.1398 21.7749L20.118 21.9008L20.0658 22.0506L19.9805 22.211L19.8575 22.3668L19.6929 22.5033L19.4833 22.6074L18.9861 22.7399L18.3673 22.7949L17.5257 22.7194L16.4164 22.4542L15.9086 22.3495L15.3619 22.3164L14.7741 22.3502L14.1884 22.4456L13.6264 22.5961L13.1108 22.7949L12.6645 23.0328L12.2618 23.3032L11.9735 23.5995L11.8233 23.9124L11.7837 24.0449H39.793L56.7898 24.1324L56.8031 24.1225L56.8361 24.0926L56.8758 24.0429L56.9095 23.9766L56.9253 23.8872L56.9108 23.7778L56.9102 23.778ZM24.6828 11.8157L24.7914 11.9949L24.8314 12.2057L24.7837 12.4404L24.6547 12.6315L24.4634 12.7608L24.2293 12.8086L24.1298 12.7988L24.6828 11.8157ZM23.7263 12.0246L23.8552 11.8335L24.0466 11.7042L24.2807 11.6564L24.472 11.6901L23.8958 12.7181L23.7381 12.5164L23.6793 12.2593L23.7263 12.0246ZM23.1563 22.8428L23.2006 22.6214L23.3222 22.4411L23.5021 22.3192L23.7229 22.2748L23.8908 22.3L24.0396 22.3716L23.2337 23.1245L23.1563 22.8428ZM24.2452 23.0649L24.1235 23.2451L23.9437 23.3671L23.7229 23.4115L23.4928 23.3618L24.2544 22.6506L24.2901 22.8434L24.2452 23.0649ZM26.1988 17.8871L26.1307 17.9792L26.0362 18.1117L25.8669 18.3769L25.6468 18.7341L25.1476 19.5554L24.9149 19.9365L24.7251 20.2394L24.6015 20.4236L24.4997 20.4733L24.3258 20.4959L24.22 20.4859L24.1301 20.4534L24.0706 20.3924L24.0567 20.2996L24.0733 20.0292L24.0786 19.7051V19.3187L24.1202 19.2624L24.2247 19.1007L24.3569 18.8442L24.4891 18.5022L24.5882 18.0847L24.6219 17.6021L24.5558 17.0646L24.3615 16.4827L24.3026 16.3501L24.2445 16.1818L24.2319 16.022L24.3099 15.9167L24.3364 15.9107L24.4131 15.9451L24.5003 16.0379L24.5935 16.1705L24.6894 16.3295L24.7833 16.4966L24.8719 16.6557L24.9519 16.7882L25.018 16.8803L25.094 16.9672L25.1978 17.0818L25.3234 17.2144L25.4662 17.3509L25.6223 17.4835L25.7862 17.5955L25.9535 17.6777L26.1201 17.7195L26.1922 17.7473L26.2193 17.8063L26.1988 17.8871ZM27.166 16.5085L27.1178 16.582L27.047 16.6861L26.9611 16.8074L26.8672 16.9293L26.7739 17.0387L26.69 17.1182L26.6239 17.1573L26.4566 17.1745L26.1657 17.1235L25.8953 16.9876L25.6494 16.7888L25.4339 16.5561L25.2521 16.3102L25.11 16.0762L25.0121 15.8774L24.9632 15.7402L24.8852 15.5301L24.7596 15.3365L24.6029 15.1947L24.4316 15.1397H24.3602L24.2511 15.1224L24.1983 15.0774L24.1916 15.0151L24.222 14.9488L24.2881 14.8686L24.3761 14.7665L24.4951 14.6141L24.6431 14.3933L24.7668 14.2449L24.8739 14.2038L25.0187 14.2594L25.1655 14.3542L25.42 14.5305L25.7281 14.8115L26.0587 15.1568L26.3892 15.528L26.6953 15.8852L26.9472 16.1895L27.1178 16.4009L27.1839 16.4804L27.166 16.5085ZM46.3776 23.389L46.1304 23.4473L45.9095 23.4022L45.7304 23.2816L45.6087 23.1013L45.5644 22.8799L45.5658 22.8527L46.57 23.2338L46.3776 23.389ZM46.6969 22.9071L45.6927 22.526L45.8844 22.3695L46.1304 22.3119L46.3505 22.3563L46.5304 22.4782L46.652 22.6585L46.6969 22.8799V22.9071Z" fill="black"/>
</svg>
