<svg width="96" height="34" viewBox="0 0 96 34" fill="none" xmlns="http://www.w3.org/2000/svg">
<mask id="mask0_1709_46" style="mask-type:alpha" maskUnits="userSpaceOnUse" x="0" y="5" width="4" height="4">
<path fill-rule="evenodd" clip-rule="evenodd" d="M0 5.55273H3.14398V8.79608H0V5.55273Z" fill="white"/>
</mask>
<g mask="url(#mask0_1709_46)">
<path fill-rule="evenodd" clip-rule="evenodd" d="M1.57207 5.55273C0.67338 5.55273 0 6.26746 0 7.16218C0 8.08134 0.67338 8.79608 1.57207 8.79608C2.47078 8.79608 3.14414 8.08134 3.14414 7.16218C3.14414 6.26746 2.47078 5.55273 1.57207 5.55273Z" fill="#EFECE6"/>
</g>
<path fill-rule="evenodd" clip-rule="evenodd" d="M26.2927 21.5471C24.0103 21.5471 22.2729 19.6287 22.2729 17.0368C22.2729 14.4449 24.0103 12.5009 26.2927 12.5009C28.5766 12.5009 30.3142 14.4449 30.3142 17.0368C30.3142 19.6287 28.5766 21.5471 26.2927 21.5471ZM32.8181 5H30.3082V12.8014C29.2834 11.3093 27.6382 10.38 25.6747 10.38C22.1914 10.38 19.6641 13.2277 19.6641 17.0388C19.6641 20.6114 21.8892 23.3397 24.995 23.6637C25.2132 23.6808 25.4306 23.6978 25.6488 23.6978H25.6747C25.8168 23.6978 25.9594 23.6893 26.1029 23.6808C26.1785 23.6722 26.2541 23.6637 26.321 23.6552H26.3378C26.4883 23.6381 26.6402 23.6125 26.7912 23.5784C26.975 23.5444 27.1522 23.4931 27.3276 23.442C27.5047 23.3823 27.6802 23.3227 27.8482 23.2459C27.9998 23.1777 28.151 23.1095 28.3013 23.0327C28.319 23.0242 28.3272 23.0157 28.344 23.0071C28.6622 22.8281 28.9644 22.6235 29.2423 22.3847C29.3842 22.2654 29.5193 22.1375 29.6534 22.0096C29.7703 21.8902 29.8886 21.7624 29.9885 21.6259C30.1068 21.4895 30.216 21.3446 30.3082 21.1996C30.576 20.8074 30.7951 20.3811 30.9545 19.9207L31.1285 20.434L31.1275 20.4357L32.1456 23.4454H34.6495L32.8181 18.3118V5Z" fill="#EFECE6"/>
<path fill-rule="evenodd" clip-rule="evenodd" d="M37.4688 23.7025H39.8102V10.7578H37.4688V23.7025Z" fill="#EFECE6"/>
<path fill-rule="evenodd" clip-rule="evenodd" d="M38.6385 5.47852C37.7027 5.47852 37 6.21807 37 7.14387C37 8.09499 37.7027 8.83453 38.6385 8.83453C39.5752 8.83453 40.2782 8.09499 40.2782 7.14387C40.2782 6.21807 39.5752 5.47852 38.6385 5.47852Z" fill="#EFECE6"/>
<path fill-rule="evenodd" clip-rule="evenodd" d="M65.0905 22.0187C62.8324 22.0187 61.1089 20.0832 61.1089 17.4685C61.1089 14.8544 62.8324 12.8931 65.0905 12.8931C67.3487 12.8931 69.0728 14.8544 69.0728 17.4685C69.0728 20.0832 67.3487 22.0187 65.0905 22.0187ZM65.0915 10.7578C61.3283 10.7578 58.5352 13.6237 58.5352 17.4699C58.5352 21.316 61.3283 24.1819 65.0915 24.1819C68.8554 24.1819 71.6476 21.316 71.6476 17.4699C71.6476 13.6237 68.8554 10.7578 65.0915 10.7578Z" fill="#EFECE6"/>
<path fill-rule="evenodd" clip-rule="evenodd" d="M75.1624 20.3379C74.2396 20.3379 73.5234 21.052 73.5234 22.0038C73.5234 22.9563 74.2396 23.694 75.1624 23.694C76.0854 23.694 76.8016 22.9563 76.8016 22.0038C76.8016 21.052 76.0854 20.3379 75.1624 20.3379Z" fill="#EFECE6"/>
<path fill-rule="evenodd" clip-rule="evenodd" d="M83.9285 22.1919C82.5998 22.1919 81.6564 21.6639 81.6564 20.3569C81.6564 19.1755 82.5751 18.3208 84.9677 18.3208C85.9101 18.3208 86.9743 18.4463 87.9168 18.6226C87.6994 20.3062 86.1763 22.1919 83.9285 22.1919ZM84.9941 10.7578C81.5134 10.7578 79.7011 12.6435 79.5794 15.2824H82.0459C82.1426 13.6736 83.2298 12.7939 84.9941 12.7939C86.7833 12.7939 87.9192 13.9247 87.9192 15.6599V16.7149C86.7593 16.5395 85.7431 16.4389 84.9214 16.4389C81.2479 16.4389 79.1455 17.9221 79.1455 20.5112C79.1455 23.0005 81.0065 24.1819 83.2545 24.1819C85.2602 24.1819 86.879 23.2764 87.9192 21.8189V23.9299H90.3847V15.8103C90.3847 12.6435 88.355 10.7578 84.9941 10.7578Z" fill="#EFECE6"/>
<path fill-rule="evenodd" clip-rule="evenodd" d="M94.3609 8.83453C95.2978 8.83453 95.9998 8.09499 95.9998 7.14296C95.9998 6.21807 95.2978 5.47852 94.3609 5.47852C93.4239 5.47852 92.7217 6.21807 92.7217 7.14296C92.7217 8.09499 93.4239 8.83453 94.3609 8.83453Z" fill="#EFECE6"/>
<path fill-rule="evenodd" clip-rule="evenodd" d="M93.1924 23.7025H95.5338V10.7578H93.1924V23.7025Z" fill="#EFECE6"/>
<path fill-rule="evenodd" clip-rule="evenodd" d="M5.61816 10.7578V13.3266V23.7025H8.08985V13.3266H14.8539V23.7025H17.3257V13.3266V12.646V10.7578H8.08985H5.61816Z" fill="#EFECE6"/>
<path fill-rule="evenodd" clip-rule="evenodd" d="M52.7941 17.1298C52.7941 19.5663 51.0561 21.3745 48.772 21.3745C46.4881 21.3745 44.7417 19.5663 44.7417 17.1298C44.7417 14.7018 46.4881 12.8681 48.772 12.8681C51.0561 12.8681 52.7941 14.7018 52.7941 17.1298ZM57.135 11.0066H55.3072V11.004L55.3055 11.0066H54.6318L53.4933 14.3505V14.3488C53.3255 13.8989 53.0903 13.4744 52.8131 13.0924C52.7881 13.05 52.7627 13.016 52.7377 12.9905C52.6621 12.8887 52.5865 12.7953 52.4941 12.7019C52.4353 12.617 52.359 12.5491 52.2841 12.4727C52.2508 12.4217 52.1994 12.3708 52.149 12.3369C52.0566 12.2435 51.9568 12.1501 51.856 12.0652C51.8308 12.0482 51.814 12.0312 51.7888 12.0143C51.6621 11.9039 51.5286 11.802 51.3942 11.7171C51.2423 11.6152 51.0918 11.5219 50.9241 11.437C50.7813 11.3521 50.6301 11.2842 50.4789 11.2162C50.3101 11.1483 50.1431 11.0804 49.9667 11.0295C49.84 10.987 49.7065 10.9531 49.5721 10.9191C49.5553 10.9191 49.5292 10.9106 49.5049 10.9021C49.4461 10.8937 49.3866 10.8767 49.3278 10.8682C49.185 10.8427 49.0264 10.8172 48.8752 10.8003C48.64 10.7748 48.405 10.7578 48.1607 10.7578C44.6769 10.7578 42.1494 13.4914 42.1494 17.1334C42.1494 20.7839 44.6769 23.5175 48.111 23.5175C50.05 23.5175 51.7218 22.626 52.7963 21.1319V23.0166C52.7963 25.3512 51.1338 26.8878 48.7233 26.8878C46.7089 26.8878 45.2142 25.6738 44.9706 24.0099H42.4434C42.7876 26.9132 45.4065 28.9762 48.7233 28.9762C52.5018 28.9762 55.3072 26.4463 55.3072 22.6431V16.1078L57.135 11.0066Z" fill="#EFECE6"/>
<path fill-rule="evenodd" clip-rule="evenodd" d="M0.466797 23.7025H2.8083V10.7578H0.466797V23.7025Z" fill="#EFECE6"/>
</svg>
