<svg width="89" height="24" viewBox="0 0 89 24" fill="none" xmlns="http://www.w3.org/2000/svg">
<g clip-path="url(#clip0_1709_23)">
<path d="M30.6294 11.9801C30.6294 7.80473 33.6587 4.58203 38.08 4.58203C41.5193 4.58203 43.9349 6.44614 44.691 8.95916L41.8875 10.0334C41.2738 8.31025 40.0856 7.13637 38.0383 7.13637C35.4582 7.13637 33.8821 8.8984 33.8821 11.9801C33.8821 15.0619 35.4164 16.8433 38.0383 16.8433C40.0856 16.8433 41.3548 15.6281 41.9685 13.9244L44.7106 15.0181C43.6673 17.7547 41.4972 19.4171 38.0383 19.4171C33.5556 19.4171 30.627 16.2965 30.627 11.9801H30.6294Z" fill="#F5F2F0"/>
<path d="M46.6602 19.0944V4.9082H49.5667V19.0944H46.6602Z" fill="#F5F2F0"/>
<path d="M51.6953 14.0274C51.6953 10.7853 53.9464 8.65625 57.0789 8.65625C60.2113 8.65625 62.4624 10.7853 62.4624 14.0274C62.4624 17.2695 60.2113 19.418 57.0789 19.418C53.9464 19.418 51.6953 17.148 51.6953 14.0274ZM59.4331 14.0687C59.4331 11.981 58.4708 10.9287 57.0789 10.9287C55.687 10.9287 54.7246 11.9835 54.7246 14.0687C54.7246 16.154 55.687 17.1286 57.0789 17.1286C58.4708 17.1286 59.4331 16.1564 59.4331 14.0687Z" fill="#F5F2F0"/>
<path d="M63.8955 14.0274C63.8955 10.7853 66.1466 8.65625 69.2791 8.65625C72.4115 8.65625 74.6626 10.7853 74.6626 14.0274C74.6626 17.2695 72.4115 19.418 69.2791 19.418C66.1466 19.418 63.8955 17.148 63.8955 14.0274ZM71.6333 14.0687C71.6333 11.981 70.671 10.9287 69.2791 10.9287C67.8872 10.9287 66.9248 11.9835 66.9248 14.0687C66.9248 16.154 67.8872 17.1286 69.2791 17.1286C70.671 17.1286 71.6333 16.1564 71.6333 14.0687Z" fill="#F5F2F0"/>
<path d="M79.536 19.0944L74.582 4.9082H78.041L80.4566 12.5882C81.0089 14.3721 81.1513 15.5266 81.1734 16.8852H82.2781C82.2977 15.5266 82.4622 14.3916 83.0342 12.5882L85.4498 4.9082H88.8695L83.9351 19.0944H79.5335H79.536Z" fill="#F5F2F0"/>
<path d="M17.3232 0.171137V6.79883H24.0177V0.171137H17.3232Z" fill="#A4AEB3"/>
<path d="M10.627 0.171135V6.79883H17.3214V0.171135H10.627Z" fill="#61E4A3"/>
<path d="M17.3213 6.80004V13.4277H24.0158V6.80004H17.3213Z" fill="#CBD5D9"/>
<path d="M8.19054 15.8375C6.20033 13.8671 6.20033 10.6599 8.19054 8.68951L3.45574 4.00195C-1.15191 8.56363 -1.15191 15.9617 3.45574 20.5234C8.0634 25.085 15.536 25.085 20.1437 20.5234L15.4089 15.8358C13.4187 17.8061 10.1791 17.8061 8.18885 15.8358L8.19054 15.8375Z" fill="#F5F2F0"/>
</g>
<defs>
<clipPath id="clip0_1709_23">
<rect width="89" height="24" fill="white"/>
</clipPath>
</defs>
</svg>
