<svg width="54" height="28" viewBox="0 0 54 28" fill="none" xmlns="http://www.w3.org/2000/svg">
<g clip-path="url(#clip0_1709_13)">
<path d="M17.0709 3.72461H13.8408V6.85016H17.0709V3.72461Z" fill="#F5F2F1"/>
<path d="M17.0284 9.57422H13.7983V24.5197H17.0284V9.57422Z" fill="#F5F2F1"/>
<path d="M49.5059 9.57422H46.2759V24.5197H49.5059V9.57422Z" fill="#F5F2F1"/>
<path d="M49.5059 3.72461H46.2759V6.85016H49.5059V3.72461Z" fill="#F5F2F1"/>
<path d="M3.22227 7.79305L3.22435 7.80312L7.5505 24.5197H12.6774V3.72461H9.57943L9.81341 20.4512H9.21025L9.20713 20.4412L4.92465 3.72461H-0.128418V24.5197H3.06732L2.66798 7.79406L3.22227 7.79305Z" fill="#F5F2F1"/>
<path d="M52.8057 4.84018C52.8527 4.80308 52.8906 4.75626 52.9165 4.70315C52.9424 4.65004 52.9557 4.59199 52.9554 4.53326V4.10257C52.954 3.99669 52.9096 3.89559 52.8317 3.82119C52.7539 3.74679 52.6489 3.70507 52.5394 3.70508H52.1328V5.64924H52.3512V4.93276H52.5883V4.94685L52.7329 5.65125H52.9408L52.7776 4.85829L52.8057 4.84018ZM52.7443 4.53024C52.7443 4.55508 52.7392 4.57968 52.7294 4.60264C52.7196 4.62559 52.7052 4.64644 52.687 4.66401C52.6689 4.68158 52.6473 4.69552 52.6236 4.70502C52.5999 4.71453 52.5745 4.71942 52.5488 4.71942H52.3512V3.90734H52.5488C52.6006 3.90734 52.6504 3.92727 52.687 3.96275C52.7237 3.99823 52.7443 4.04635 52.7443 4.09653V4.53024Z" fill="#F5F2F1"/>
<path d="M52.5479 3.14844C52.2355 3.14844 51.9301 3.23809 51.6703 3.40605C51.4105 3.57401 51.2081 3.81274 51.0885 4.09204C50.969 4.37135 50.9377 4.67869 50.9986 4.97521C51.0596 5.27172 51.21 5.54408 51.4309 5.75785C51.6519 5.97163 51.9333 6.11721 52.2398 6.17619C52.5462 6.23517 52.8638 6.2049 53.1525 6.0892C53.4411 5.97351 53.6878 5.77759 53.8614 5.52622C54.035 5.27485 54.1276 4.97932 54.1276 4.677C54.1273 4.27168 53.9608 3.88304 53.6646 3.59644C53.3684 3.30984 52.9668 3.1487 52.5479 3.14844ZM52.5479 6.07172C52.2629 6.07172 51.9842 5.98992 51.7472 5.83667C51.5101 5.68341 51.3254 5.46559 51.2163 5.21074C51.1072 4.95588 51.0787 4.67545 51.1343 4.4049C51.1899 4.13435 51.3272 3.88583 51.5287 3.69078C51.7303 3.49572 51.9871 3.36289 52.2667 3.30907C52.5463 3.25526 52.8361 3.28288 53.0995 3.38844C53.3629 3.49401 53.588 3.67277 53.7464 3.90213C53.9048 4.13149 53.9893 4.40115 53.9893 4.677C53.9887 5.04674 53.8367 5.40118 53.5665 5.66263C53.2963 5.92407 52.93 6.07119 52.5479 6.07172Z" fill="#F5F2F1"/>
<path d="M29.515 12.0119C29.8853 12.0164 30.2391 12.1609 30.5008 12.4144C30.9054 12.7978 31.1113 13.4046 31.1113 14.2207V24.5201H34.1843V12.35C34.1843 12.2242 34.0709 9.24259 30.9605 9.24259C28.527 9.24259 27.5287 10.6514 27.2167 11.2552V11.2622H26.5324L26.8132 10.5498C26.4347 9.787 25.0151 9.18825 23.7048 9.24159C22.9051 9.27379 21.4669 9.5787 20.8179 11.2542V11.2622H20.1056L20.4415 10.4753L20.4498 9.56964H18.1089V24.5201H21.1819V14.27C21.1819 14.2237 21.1299 13.1188 21.7757 12.4436C21.9269 12.286 22.1112 12.1616 22.3162 12.0788C22.5213 11.996 22.7423 11.9567 22.9644 11.9636H23.0081C23.3876 11.9537 23.7557 12.0894 24.0324 12.341C24.3621 12.6429 24.5295 13.0967 24.5295 13.6834V24.5201H27.6576L27.7044 14.0819C27.7044 13.9812 27.6691 13.1098 28.2119 12.5271C28.5301 12.186 28.9679 12.0129 29.515 12.0119Z" fill="#F5F2F1"/>
<path d="M45.2021 12.6142C45.2021 10.9538 44.1226 9.2723 42.0604 9.2723C39.9982 9.2723 38.8366 10.7898 38.5329 11.2547V11.2607H37.8414L38.4757 10.0854V3.72461H35.2769V24.5197H38.3509V23.8223L37.9838 22.7093L38.6182 22.7023C38.6182 22.7023 39.6498 24.8507 42.0334 24.8507C44.2256 24.8507 45.2062 23.0817 45.2062 21.3287L45.2021 12.6142ZM41.9408 20.0014C41.9408 21.1375 41.7328 22.2978 40.1594 22.2978C38.4404 22.2978 38.4404 20.8044 38.4404 20.0014V13.5189C38.4404 12.2509 39.1236 11.5234 40.3123 11.5234C41.3304 11.5234 41.9377 12.2137 41.9377 13.3679L41.9408 20.0014Z" fill="#F5F2F1"/>
</g>
<defs>
<clipPath id="clip0_1709_13">
<rect width="54" height="28" fill="white"/>
</clipPath>
</defs>
</svg>
