<svg width="86" height="28" viewBox="0 0 86 28" fill="none" xmlns="http://www.w3.org/2000/svg">
<g clip-path="url(#clip0_1709_36)">
<mask id="mask0_1709_36" style="mask-type:luminance" maskUnits="userSpaceOnUse" x="0" y="0" width="86" height="28">
<path d="M86 0H0V28H86V0Z" fill="white"/>
</mask>
<g mask="url(#mask0_1709_36)">
<path d="M41.0815 6.47852H44.7977L38.6493 22.0038H34.9783L36.9376 17.213L32.2305 6.47852H36.1268L38.6717 12.9769L41.0815 6.47852Z" fill="#FAFAFA"/>
<path d="M43.0977 15.4821C43.0977 11.5787 46.1155 8.69531 50.0795 8.69531C54.0433 8.69531 57.0386 11.5787 57.0386 15.4821C57.0386 19.43 54.0432 22.2689 50.0795 22.2689C46.1157 22.2689 43.0977 19.4079 43.0977 15.4821ZM53.5927 15.4821C53.5927 13.3308 52.0614 11.8447 50.0795 11.8447C48.0525 11.8447 46.5435 13.353 46.5435 15.4821C46.5435 17.5891 48.0525 19.0751 50.0795 19.0751C52.0839 19.0751 53.5927 17.5892 53.5927 15.4821Z" fill="#FAFAFA"/>
<path d="M67.8922 6.47868H71.3831V22.0039H68.0725V20.7619C67.1717 21.6933 65.8654 22.2701 64.1987 22.2701C60.4152 22.2701 57.5098 19.4091 57.5098 15.4832C57.5098 11.5798 60.4149 8.69641 64.1987 8.69641C65.7077 8.69641 66.9914 9.18446 67.8923 10.0049V6.47852L67.8922 6.47868ZM68.1624 15.4168C68.1624 13.3319 66.6311 11.8238 64.5816 11.8238C62.5771 11.8238 61.023 13.3321 61.023 15.4168C61.023 17.5238 62.5771 19.032 64.5816 19.032C66.6311 19.032 68.1624 17.5238 68.1624 15.4168Z" fill="#FAFAFA"/>
<path d="M82.6884 8.96149H85.9989V22.0027H82.6884V20.7607C81.7879 21.6922 80.5262 22.2689 78.8371 22.2689C75.0536 22.2689 72.126 19.4079 72.126 15.4821C72.126 11.5787 75.0536 8.69531 78.8371 8.69531C80.3688 8.69531 81.6974 9.20551 82.6884 10.2035V8.96149ZM82.7789 15.4157C82.7789 13.3308 81.2472 11.8227 79.1976 11.8227C77.1929 11.8227 75.6392 13.3309 75.6392 15.4157C75.6392 17.5227 77.1929 19.0309 79.1976 19.0309C81.2472 19.0309 82.7789 17.5227 82.7789 15.4157Z" fill="#FAFAFA"/>
<path fill-rule="evenodd" clip-rule="evenodd" d="M14.2163 0C22.0676 0 28.4325 6.26806 28.4325 14C28.4325 21.7319 22.0676 28 14.2163 28C6.36488 28 0 21.7319 0 14C0 6.26806 6.36488 0 14.2163 0ZM14.2965 15.6682C12.5124 15.6682 10.7286 14.9996 9.37047 13.6621L4.39542 8.76279L6.72408 6.46955L11.6992 11.3689C12.3927 12.0521 13.3154 12.4283 14.2965 12.4283C15.2775 12.4283 16.1999 12.0521 16.8937 11.3689L21.7072 6.62871L24.0359 8.92195L19.2224 13.6621C17.8643 14.9996 16.0805 15.6682 14.2965 15.6682ZM12.3096 17.1527H16.1227V23.5397H12.3096V17.1527Z" fill="#61FFC9"/>
</g>
</g>
<defs>
<clipPath id="clip0_1709_36">
<rect width="86" height="28" fill="white"/>
</clipPath>
</defs>
</svg>
